<svg id="Layer_1" data-name="Layer 1" xmlns="http://www.w3.org/2000/svg" viewBox="0 0 102.38 94.34"><defs><style>.cls-1{fill:#7b6648;}</style></defs><title>1</title><path class="cls-1" d="M218.93,241.22l-2-2.87a45.6,45.6,0,0,1-4.48-8.94A44.49,44.49,0,0,1,209.78,214a45.42,45.42,0,0,1,1-9.65l.58-2.56c.26-.84.56-1.69.85-2.55a41.34,41.34,0,0,1,2.12-5.15,23.36,23.36,0,0,1,1.36-2.54c.5-.83.94-1.71,1.51-2.53a47.81,47.81,0,0,1,3.67-4.82,44.56,44.56,0,0,1,9.58-8.41,46.28,46.28,0,0,1,26.36-7.68l3.45.14,3.74.51a29.46,29.46,0,0,1,3.65.78,25.52,25.52,0,0,1,3.58,1c1.17.44,2.38.78,3.52,1.32l3.43,1.61a51,51,0,0,1,6.39,4.15,49.42,49.42,0,0,1,10.59,11.13,48.86,48.86,0,0,1,6.46,14.1,35.56,35.56,0,0,1,.87,3.8l.57,3.86.19,3.89,0,1-.05,1.06-.1,1.82-.1,1.82-.29,2a33.87,33.87,0,0,1-.7,3.89l-1,3.73-1.33,3.6a47.07,47.07,0,0,1-19.15,22.34,35.52,35.52,0,0,1-3.15,1.77l-3.24,1.52a46.17,46.17,0,0,1-6.71,2.14,49.78,49.78,0,0,1-6.77,1.17c-1.13.1-2.25.1-3.37.15l-1.67.05-1.64-.06c-2.1-.1-4.14-.13-6.28-.4l-3.13-.32-3-.53a56.66,56.66,0,0,1-11.33-3.27,45.63,45.63,0,0,1-5-2.5L223,254l-2.11-1.58a44.82,44.82,0,0,1-7-6.78,62,62,0,0,1-8.13-13.32l-1.27-2.78-1-2.51c-.62-1.55-1.1-2.88-1.45-4l-1.13-3.33,1.42,3.22c.44,1.06,1,2.34,1.79,3.82l1.17,2.39,1.43,2.66a60.39,60.39,0,0,0,8.74,12.41,42.22,42.22,0,0,0,16,10.57,53.1,53.1,0,0,0,10.74,2.55l2.88.38,2.92.2c1.93.19,4,.15,6.13.18h1.52l1.51-.11c1-.08,2-.11,3-.23a45.13,45.13,0,0,0,6.07-1.26,49.08,49.08,0,0,0,6-2.08l2.87-1.42a30.74,30.74,0,0,0,2.78-1.65,41.79,41.79,0,0,0,9.84-8.64,46,46,0,0,0,6.85-11.49l1.15-3.19.84-3.29a28.25,28.25,0,0,0,.57-3.27l.25-1.64.09-1.82.09-1.82,0-.77,0-.86-.18-3.43-.53-3.39a33,33,0,0,0-.79-3.34,43.17,43.17,0,0,0-5.6-12.45,43.84,43.84,0,0,0-9.29-9.89,40.94,40.94,0,0,0-11.71-6.44,21.39,21.39,0,0,0-3.16-1,24.85,24.85,0,0,0-3.18-.75l-3.14-.52-3.44-.21a43.06,43.06,0,0,0-23.81,6.24,42.17,42.17,0,0,0-9,7.36,44.11,44.11,0,0,0-3.59,4.28c-.56.73-1,1.52-1.5,2.27a20.88,20.88,0,0,0-1.37,2.29,38.25,38.25,0,0,0-2.2,4.7l-.91,2.34-.68,2.36a33.86,33.86,0,0,0-1,4.58,34.47,34.47,0,0,0-.52,4.52,42.92,42.92,0,0,0,1.57,15,51.89,51.89,0,0,0,3.68,9.12Z" transform="translate(-200.93 -168.1)"/><path class="cls-1" d="M254.41,185.45c8.61,12.23,17.31,23.41,20.65,37.52A21.7,21.7,0,0,1,266,245.75a20.7,20.7,0,0,1-23-.11c-7.28-5-11.45-14.47-8.82-22.85a112.81,112.81,0,0,1,8.8-19.83C246.12,197.09,250.25,191.71,254.41,185.45Zm-2.31,17.07-.75-.34c-3.36,6.42-7,12.7-10,19.3-2.49,5.55-1.51,11.1,2.34,15.91a27.8,27.8,0,0,0,3.78,3.31l.7-.45C242.83,227,249.07,214.92,252.1,202.52Z" transform="translate(-200.93 -168.1)"/></svg>