<svg id="Layer_1" data-name="Layer 1" xmlns="http://www.w3.org/2000/svg" viewBox="0 0 102.38 94.34"><defs><style>.cls-1{fill:#7b6648;}</style></defs><title>2</title><path class="cls-1" d="M219,242.19l-2-2.87a45.59,45.59,0,0,1-4.48-8.94,44.48,44.48,0,0,1-2.63-15.43,45.4,45.4,0,0,1,1-9.65l.58-2.56c.26-.84.56-1.69.85-2.55a41.29,41.29,0,0,1,2.12-5.15,23.32,23.32,0,0,1,1.36-2.54c.5-.83.94-1.71,1.51-2.53a47.8,47.8,0,0,1,3.67-4.82,44.55,44.55,0,0,1,9.58-8.41,46.27,46.27,0,0,1,26.36-7.67l3.45.14,3.74.51a29.45,29.45,0,0,1,3.65.78,25.52,25.52,0,0,1,3.58,1c1.17.44,2.38.78,3.52,1.32l3.43,1.61a51,51,0,0,1,6.39,4.15,49.43,49.43,0,0,1,10.59,11.13,48.88,48.88,0,0,1,6.46,14.1,35.61,35.61,0,0,1,.87,3.8l.57,3.86.19,3.89,0,1-.05,1.06-.1,1.82-.1,1.82-.29,2a33.94,33.94,0,0,1-.7,3.89l-1,3.73-1.33,3.6A47.07,47.07,0,0,1,280.7,256.6a35.47,35.47,0,0,1-3.15,1.77l-3.24,1.52a46.25,46.25,0,0,1-6.71,2.14,49.77,49.77,0,0,1-6.77,1.16c-1.13.1-2.25.1-3.37.15l-1.67.05-1.64-.06c-2.1-.1-4.14-.13-6.28-.4l-3.13-.32-3-.53a56.66,56.66,0,0,1-11.33-3.27,45.66,45.66,0,0,1-5-2.5l-2.32-1.38L221,253.36a44.81,44.81,0,0,1-7-6.78,62,62,0,0,1-8.13-13.32l-1.27-2.78-1-2.51c-.62-1.55-1.1-2.88-1.45-4L201,220.68l1.42,3.22c.44,1.06,1,2.34,1.79,3.82l1.17,2.39,1.43,2.66a60.41,60.41,0,0,0,8.74,12.41,42.22,42.22,0,0,0,16,10.57,53.09,53.09,0,0,0,10.74,2.55l2.88.38,2.92.2c1.93.19,4,.15,6.13.18h1.52l1.51-.11c1-.08,2-.11,3-.23a45.14,45.14,0,0,0,6.07-1.26,49.11,49.11,0,0,0,6-2.08l2.87-1.42a30.78,30.78,0,0,0,2.78-1.65,41.79,41.79,0,0,0,9.84-8.64,46,46,0,0,0,6.85-11.49l1.15-3.19.84-3.29a28.23,28.23,0,0,0,.57-3.27l.25-1.64.09-1.82.09-1.82,0-.77,0-.86-.18-3.43L297,208.7a32.91,32.91,0,0,0-.79-3.34,43.17,43.17,0,0,0-5.6-12.45,43.83,43.83,0,0,0-9.29-9.89,40.94,40.94,0,0,0-11.71-6.44,21.41,21.41,0,0,0-3.16-1,24.84,24.84,0,0,0-3.18-.75l-3.14-.52-3.45-.21a43.06,43.06,0,0,0-23.81,6.24,42.18,42.18,0,0,0-9,7.36,44.11,44.11,0,0,0-3.59,4.28c-.56.73-1,1.52-1.5,2.27a20.87,20.87,0,0,0-1.37,2.29,38.19,38.19,0,0,0-2.2,4.7l-.91,2.34-.68,2.36a33.84,33.84,0,0,0-1,4.58,34.51,34.51,0,0,0-.52,4.52,42.92,42.92,0,0,0,1.57,15,51.88,51.88,0,0,0,3.68,9.12Z" transform="translate(-201.03 -169.07)"/><path class="cls-1" d="M239.4,186.48a65.39,65.39,0,0,1,12.05,29.25c.84,5.84.82,11.8,1,17.71a3.6,3.6,0,0,1-1.21,2.34,7.61,7.61,0,0,0-.71,10.82,7.52,7.52,0,0,0,10.65.4c3.13-2.94,3.15-7.52.13-10.8a4.12,4.12,0,0,1-1-2.26c-1.05-12-3.71-23.55-9.76-34.12A45.5,45.5,0,0,0,239.4,186.48Z" transform="translate(-201.03 -169.07)"/><path class="cls-1" d="M239.4,186.48l-.61.44a64.64,64.64,0,0,1,11.92,28.91c.83,5.76.81,11.7,1,17.64v0a1.92,1.92,0,0,1-.28.85,3.83,3.83,0,0,1-.69.89,8.84,8.84,0,0,0-2.88,6.42A8,8,0,0,0,250,247.1a8.27,8.27,0,0,0,11.73.45,8,8,0,0,0,2.61-5.89,8.82,8.82,0,0,0-2.44-6,3.39,3.39,0,0,1-.83-1.81c-1.06-12.07-3.73-23.74-9.86-34.43a46.26,46.26,0,0,0-11.38-13.56.76.76,0,0,0-1.08,1l.61-.44-.47.59a44.75,44.75,0,0,1,11,13.13c6,10.44,8.62,21.87,9.67,33.81a4.84,4.84,0,0,0,1.22,2.7,7.31,7.31,0,0,1,2,4.94,6.51,6.51,0,0,1-2.13,4.79,6.76,6.76,0,0,1-9.58-.36,6.52,6.52,0,0,1-1.73-4.43,7.32,7.32,0,0,1,2.4-5.32,5.33,5.33,0,0,0,1-1.25,3.35,3.35,0,0,0,.47-1.59v-.08c-.23-5.89-.21-11.88-1.06-17.79A66.15,66.15,0,0,0,240,186l-.61.44-.47.59Z" transform="translate(-201.03 -169.07)"/><path class="cls-1" d="M267.26,236h15.25l0-.65H265.43c2.61,5.9,2.23,11.16-3.28,15.1a10.21,10.21,0,0,1-11.92-.07c-5.39-4-6.15-9.13-2.68-15.07H232.19l0,.68c2.1.45,4.28.16,6.41.21s4.5,0,7,0c-2.48,6.46-1.21,11.85,4.64,15.5,4.24,2.65,8.76,2.35,12.93-.44C267.66,248.22,268.84,243.89,267.26,236Z" transform="translate(-201.03 -169.07)"/><path class="cls-1" d="M267.26,236v.76h15.25a.76.76,0,0,0,.76-.78l0-.65a.76.76,0,0,0-.76-.73H265.43a.76.76,0,0,0-.69,1.06,15.45,15.45,0,0,1,1.5,6.17c0,3-1.29,5.68-4.53,8a9.46,9.46,0,0,1-5.5,1.75,9.25,9.25,0,0,1-5.53-1.81c-3.09-2.32-4.47-4.85-4.48-7.71a12.81,12.81,0,0,1,2-6.37.76.76,0,0,0-.65-1.14H232.19a.75.75,0,0,0-.75.71l0,.68a.75.75,0,0,0,.6.79,14.46,14.46,0,0,0,3,.27c1,0,2-.05,3-.05h.52c.89,0,1.78,0,2.67,0h4.31v-.76l-.71-.27a17.18,17.18,0,0,0-1.25,6.11,11.06,11.06,0,0,0,1.53,5.74,13.73,13.73,0,0,0,4.66,4.56,12.09,12.09,0,0,0,6.45,1.94,13.11,13.11,0,0,0,7.3-2.39,11.25,11.25,0,0,0,3.91-4.2,12.67,12.67,0,0,0,1.26-5.91,30.64,30.64,0,0,0-.68-6l-.74.15v0l-.74.15a29.15,29.15,0,0,1,.65,5.66,11.17,11.17,0,0,1-1.1,5.22,9.74,9.74,0,0,1-3.4,3.63,11.6,11.6,0,0,1-6.46,2.14,10.57,10.57,0,0,1-5.65-1.72A12.23,12.23,0,0,1,246.4,247a9.54,9.54,0,0,1-1.32-5,15.68,15.68,0,0,1,1.15-5.57.76.76,0,0,0-.71-1h-4.31c-.89,0-1.77,0-2.64,0H238c-1,0-2,.05-3,.05a13,13,0,0,1-2.73-.24l-.16.74.75,0,0-.68-.75,0v.76h15.37v-.76l-.65-.38a14.29,14.29,0,0,0-2.21,7.14c0,3.39,1.74,6.44,5.09,8.92a10.76,10.76,0,0,0,6.43,2.1,11,11,0,0,0,6.38-2c3.55-2.52,5.17-5.74,5.16-9.24a16.93,16.93,0,0,0-1.63-6.78l-.69.31v.76h17.06v-.76l-.76,0,0,.65.76,0v-.76H267.26a.76.76,0,0,0-.74.9Z" transform="translate(-201.03 -169.07)"/></svg>