<svg id="Layer_1" data-name="Layer 1" xmlns="http://www.w3.org/2000/svg" viewBox="0 0 102.38 94.34"><defs><style>.cls-1{fill:#7b6648;}.cls-2{fill:#fff;}.cls-3{fill:#cfccc0;}.cls-4{fill:#cdcecf;}</style></defs><title>3</title><path class="cls-1" d="M213,244l-2-2.87a45.57,45.57,0,0,1-4.48-8.94,44.48,44.48,0,0,1-2.63-15.43,45.43,45.43,0,0,1,1-9.65l.58-2.56c.26-.84.56-1.69.85-2.55a41.25,41.25,0,0,1,2.13-5.15,23.44,23.44,0,0,1,1.36-2.54c.5-.83.94-1.71,1.51-2.53A47.91,47.91,0,0,1,215,187a44.56,44.56,0,0,1,9.58-8.41,46.28,46.28,0,0,1,26.36-7.67l3.45.14,3.74.51a29.48,29.48,0,0,1,3.65.78,25.53,25.53,0,0,1,3.58,1c1.17.44,2.38.78,3.52,1.32l3.43,1.61a51,51,0,0,1,6.39,4.15,49.44,49.44,0,0,1,10.59,11.13,48.88,48.88,0,0,1,6.46,14.1,35.65,35.65,0,0,1,.87,3.8l.57,3.86.19,3.89,0,1-.05,1.06-.1,1.82-.1,1.82-.29,2a33.91,33.91,0,0,1-.7,3.89l-1,3.73-1.33,3.6a47.07,47.07,0,0,1-19.15,22.34,35.34,35.34,0,0,1-3.15,1.77l-3.24,1.52a46.19,46.19,0,0,1-6.71,2.14,49.84,49.84,0,0,1-6.77,1.16c-1.13.1-2.25.1-3.37.15l-1.67.05-1.64-.07c-2.1-.1-4.14-.13-6.28-.4l-3.13-.32-3-.53a56.68,56.68,0,0,1-11.33-3.27,45.66,45.66,0,0,1-5-2.5l-2.32-1.38L215,255.22a44.77,44.77,0,0,1-7-6.78,61.92,61.92,0,0,1-8.13-13.32l-1.27-2.78-1-2.51c-.62-1.55-1.1-2.88-1.45-4L195,222.53l1.42,3.22c.44,1.06,1,2.34,1.79,3.82L199.4,232l1.43,2.66A60.4,60.4,0,0,0,209.57,247a42.23,42.23,0,0,0,16,10.57,53.14,53.14,0,0,0,10.74,2.55l2.88.38,2.92.2c1.93.19,4,.15,6.13.18h1.52l1.51-.11c1-.08,2-.11,3-.23a45.14,45.14,0,0,0,6.07-1.26,49,49,0,0,0,6-2.08l2.87-1.42a30.9,30.9,0,0,0,2.78-1.65,41.77,41.77,0,0,0,9.84-8.64A46,46,0,0,0,288.7,234l1.15-3.19.84-3.29a28.32,28.32,0,0,0,.58-3.27l.25-1.64.09-1.82.09-1.83,0-.77,0-.86L291.5,214l-.53-3.39a32.85,32.85,0,0,0-.79-3.34,43.17,43.17,0,0,0-5.6-12.45,43.85,43.85,0,0,0-9.29-9.89,41,41,0,0,0-11.71-6.45,21.37,21.37,0,0,0-3.16-1,24.89,24.89,0,0,0-3.18-.75l-3.14-.52-3.44-.21a43.06,43.06,0,0,0-23.81,6.24,42.2,42.2,0,0,0-9,7.36,44.17,44.17,0,0,0-3.59,4.28c-.56.73-1,1.52-1.5,2.27a20.91,20.91,0,0,0-1.38,2.29,38.21,38.21,0,0,0-2.2,4.7l-.91,2.34-.68,2.36a33.91,33.91,0,0,0-1,4.58,34.58,34.58,0,0,0-.52,4.52,42.93,42.93,0,0,0,1.57,15,51.91,51.91,0,0,0,3.68,9.12l1.77,3" transform="translate(-195.01 -170.92)"/><path class="cls-1" d="M258.85,251.2c-.11-.19-.33-.39-.32-.57a96.88,96.88,0,0,1,1-11.38c.33-1.77,1.93-3.37,3.14-4.9s2.91-2.77,3.92-4.42a8.42,8.42,0,0,0,1.1-4.47,3.23,3.23,0,0,0-4.31-2.83,17.62,17.62,0,0,0-4.15,1.91c-5.82,3.72-11.58,3.77-17.39,0a23,23,0,0,0-3.42-1.69,3.4,3.4,0,0,0-4.08.6,3.71,3.71,0,0,0-1,4.39,14.17,14.17,0,0,0,3.36,4.77c6,4.6,5.86,11.08,5.86,17.57,0,.32-.42.64-.65,1-.21-.33-.59-.65-.61-1-.18-2.67-.26-5.35-.41-8a10,10,0,0,0-3.1-6.6c-1.3-1.31-2.68-2.57-3.86-4-2.25-2.69-2.85-5.64-.87-8.9-2.59-2.89-2.31-5.85,0-8.75-2-3.25-1.35-6.17.85-8.9a14.75,14.75,0,0,1,2.25-2.35c3.79-3,5.09-7,5.07-11.65,0-1.53,0-3.07.06-4.6,0-.34.4-.65.62-1,.23.32.67.66.64,1-.31,3.74-.27,7.58-1.22,11.16-.57,2.15-2.66,3.92-4.13,5.81-1.09,1.41-2.44,2.63-3.37,4.13a4.4,4.4,0,0,0,.29,5.51c1.22,1.3,2.79,1.46,5.12.37,1.73-.81,3.4-1.74,5.1-2.63a12.52,12.52,0,0,1,12.27,0c1.69.89,3.36,1.82,5.09,2.64,2.31,1.09,3.89.93,5.12-.37a4.75,4.75,0,0,0,.29-5.55,19.11,19.11,0,0,0-3.57-4.2c-3.62-3-5-7-5-11.52,0-2.1,0-4.21,0-6.31l.78-.06c.1.59.24,1.18.29,1.78.22,2.73.37,5.47.63,8.2a9.48,9.48,0,0,0,3.05,5.81,52.5,52.5,0,0,1,3.86,4c2,2.44,2.79,5.12,1.15,8.15a2,2,0,0,0,.16,1.65,5.87,5.87,0,0,1,0,6.82,1.74,1.74,0,0,0-.14,1.48c1.62,3,.84,5.7-1.1,8.17a27.79,27.79,0,0,1-3.33,3.43,11.93,11.93,0,0,0-4,9c-.06,2-.17,4.08-.29,6.12a7.59,7.59,0,0,1-.26,1.2l-.46,0m-26.38-32.87c0,2.21,1.14,3.11,3.27,3.13a11.12,11.12,0,0,1,4.75,1c10,5,9.94,5,20,0a11,11,0,0,1,5.12-.94,2,2,0,0,0,2.21-1.23,4.18,4.18,0,0,0-.6-4.8,1.55,1.55,0,0,0-1.26-.39,9.18,9.18,0,0,1-6.06-1.21c-1.84-1-3.72-1.95-5.64-2.8a8.93,8.93,0,0,0-7.59,0c-2.08,1-4.06,2.16-6.18,3a13.25,13.25,0,0,1-4.57,1c-2.21,0-3.38.94-3.41,3.21" transform="translate(-195.01 -170.92)"/><path class="cls-1" d="M258.85,251.2l.33-.19-.22-.31,0-.08h0l-.11,0h.12v0l-.11,0h-.11l.23,0v0h-.23l.23,0h0a96.78,96.78,0,0,1,.95-11.34c.29-1.6,1.83-3.18,3.06-4.74s2.87-2.72,3.95-4.45a8.76,8.76,0,0,0,1.16-4.41v-.27a3.54,3.54,0,0,0-3.63-3.36,3.88,3.88,0,0,0-1.17.18,18,18,0,0,0-4.24,1.95,15.73,15.73,0,0,1-8.52,2.75,15.42,15.42,0,0,1-8.46-2.75,23.36,23.36,0,0,0-3.48-1.72,4.9,4.9,0,0,0-1.94-.44,3.48,3.48,0,0,0-2.57,1.13,4.64,4.64,0,0,0-1.44,3.16A3.6,3.6,0,0,0,233,228a14.48,14.48,0,0,0,3.47,4.9,13.36,13.36,0,0,1,5,7.58,36.84,36.84,0,0,1,.75,9.07v.62l0,.06c-.07.14-.34.39-.56.68l.31.22.32-.21c-.13-.2-.29-.37-.4-.51l-.16-.29c-.17-2.66-.26-5.34-.41-8a10.36,10.36,0,0,0-3.21-6.85c-1.31-1.32-2.68-2.58-3.84-4a7.41,7.41,0,0,1-2-4.75,7,7,0,0,1,1.15-3.7l0-.46a5.93,5.93,0,0,1-1.74-4,6.92,6.92,0,0,1,1.76-4.27l0-.44a6.87,6.87,0,0,1-1.15-3.66,7.67,7.67,0,0,1,2-4.8A14.37,14.37,0,0,1,236.4,203c3.86-3,5.23-7.19,5.22-11.84V191c0-.53,0-1.06,0-1.58,0-1,0-2,.06-3l.16-.28c.11-.14.27-.31.4-.51l-.32-.21-.31.22c.14.2.31.36.43.5l.13.17,0,0h0l.38,0-.38,0c-.31,3.76-.28,7.58-1.21,11.09-.51,2-2.55,3.75-4.06,5.68a53.62,53.62,0,0,0-3.39,4.16,5.46,5.46,0,0,0-.88,2.89,4.47,4.47,0,0,0,1.22,3.08,3.58,3.58,0,0,0,2.7,1.21,6.87,6.87,0,0,0,2.86-.76c1.75-.82,3.42-1.75,5.11-2.64a12.13,12.13,0,0,1,11.91,0c1.69.88,3.36,1.82,5.11,2.64a6.78,6.78,0,0,0,2.85.76,3.61,3.61,0,0,0,2.71-1.21,4.68,4.68,0,0,0,1.14-3.19,5.21,5.21,0,0,0-.82-2.83,19.47,19.47,0,0,0-3.64-4.29c-3.52-3-4.81-6.77-4.89-11.24q0-1.18,0-2.37c0-1.31,0-2.62,0-3.93h-.38l0,.38.78-.06,0-.38-.38.06c.1.61.24,1.19.28,1.75.22,2.73.37,5.46.63,8.2a9.86,9.86,0,0,0,3.16,6,52.34,52.34,0,0,1,3.83,4,7.54,7.54,0,0,1,1.94,4.69,6.33,6.33,0,0,1-.83,3,1.58,1.58,0,0,0-.16.75,2.6,2.6,0,0,0,.34,1.28,6.23,6.23,0,0,1,1,3.25,5.69,5.69,0,0,1-1,3.16,2.21,2.21,0,0,0-.31,1.16,1.52,1.52,0,0,0,.15.72,6.39,6.39,0,0,1,.83,3.06,7.63,7.63,0,0,1-1.9,4.68,27.48,27.48,0,0,1-3.29,3.38,12.32,12.32,0,0,0-4.1,9.27c-.06,2-.17,4.07-.29,6.11a7.56,7.56,0,0,1-.25,1.14l.37.08,0-.38-.46,0,0,.38.33-.19-.33.19,0,.38.46,0a.38.38,0,0,0,.35-.3A7.58,7.58,0,0,0,260,250c.12-2,.23-4.09.29-6.13a11.55,11.55,0,0,1,3.84-8.73,28.17,28.17,0,0,0,3.38-3.48,8.39,8.39,0,0,0,2.06-5.16,7.17,7.17,0,0,0-.92-3.43.8.8,0,0,1-.06-.35,1.49,1.49,0,0,1,.19-.74,6.45,6.45,0,0,0,1.17-3.59,7,7,0,0,0-1.14-3.64,1.89,1.89,0,0,1-.22-.89.87.87,0,0,1,.07-.39,7.09,7.09,0,0,0,.92-3.4,8.29,8.29,0,0,0-2.11-5.17,52.79,52.79,0,0,0-3.88-4,9.09,9.09,0,0,1-2.94-5.57c-.26-2.72-.41-5.45-.63-8.19-.05-.64-.2-1.24-.29-1.81a.38.38,0,0,0-.41-.32l-.78.06a.38.38,0,0,0-.35.38c0,1.31,0,2.62,0,3.93,0,.79,0,1.59,0,2.38.07,4.6,1.44,8.69,5.16,11.81a18.73,18.73,0,0,1,3.49,4.12,4.44,4.44,0,0,1,.69,2.42,3.93,3.93,0,0,1-.93,2.66,2.83,2.83,0,0,1-2.16,1,6.06,6.06,0,0,1-2.52-.69c-1.71-.81-3.38-1.74-5.08-2.63a12.9,12.9,0,0,0-12.62,0c-1.7.89-3.37,1.82-5.08,2.62a6.13,6.13,0,0,1-2.53.69,2.79,2.79,0,0,1-2.14-1,3.7,3.7,0,0,1-1-2.56,4.68,4.68,0,0,1,.76-2.49c.89-1.43,2.23-2.66,3.35-4.1,1.42-1.86,3.57-3.63,4.2-6,1-3.65.92-7.51,1.23-11.22h0v0a1.14,1.14,0,0,0-.33-.71c-.15-.17-.3-.33-.38-.45l-.32-.16-.32.17c-.08.12-.23.28-.37.46a1.29,1.29,0,0,0-.31.71c-.05,1-.06,2-.06,3,0,.53,0,1.06,0,1.59v.11c0,4.52-1.28,8.35-4.93,11.24a15.07,15.07,0,0,0-2.31,2.41,8.44,8.44,0,0,0-2.14,5.28,7.65,7.65,0,0,0,1.27,4.06l.33-.2-.3-.24a7.68,7.68,0,0,0-1.93,4.75,6.69,6.69,0,0,0,1.93,4.49l.29-.26-.33-.2a7.82,7.82,0,0,0-1.26,4.1,8.17,8.17,0,0,0,2.16,5.24c1.21,1.44,2.59,2.71,3.88,4a9.59,9.59,0,0,1,3,6.35c.15,2.67.24,5.34.41,8a1.33,1.33,0,0,0,.31.71c.14.18.28.34.36.47l.31.17.32-.16c.08-.12.24-.28.39-.46a1.16,1.16,0,0,0,.33-.73v-.61a37.5,37.5,0,0,0-.77-9.26,14.13,14.13,0,0,0-5.23-8,13.86,13.86,0,0,1-3.25-4.65,2.83,2.83,0,0,1-.33-1.32,3.89,3.89,0,0,1,1.22-2.63,2.71,2.71,0,0,1,2-.89,4.15,4.15,0,0,1,1.63.38,22.75,22.75,0,0,1,3.36,1.66,16.19,16.19,0,0,0,8.88,2.87,16.5,16.5,0,0,0,8.93-2.87,17.26,17.26,0,0,1,4.06-1.86,3.11,3.11,0,0,1,.94-.15,2.77,2.77,0,0,1,2.87,2.62v.25a8,8,0,0,1-1,4c-1,1.56-2.63,2.78-3.9,4.38s-2.83,3.12-3.22,5.07a97.31,97.31,0,0,0-1,11.43l.38,0-.38,0v.05a.87.87,0,0,0,.19.5l.18.25.36.19,0-.38m-26.38-32.87h-.38v.08a3.33,3.33,0,0,0,1,2.62,4,4,0,0,0,2.67.83,10.76,10.76,0,0,1,4.58.95c5,2.5,7.51,3.79,10.14,3.8s5.16-1.3,10.16-3.79a10.32,10.32,0,0,1,4.47-.9h.65a2.62,2.62,0,0,0,1.47-.36,2.75,2.75,0,0,0,.9-1.08,4.45,4.45,0,0,0,.56-2.11,5.15,5.15,0,0,0-1.19-3.11,1.37,1.37,0,0,0-.64-.42,2.24,2.24,0,0,0-.74-.13l-.25,0,.07.38-.06-.38a8.24,8.24,0,0,1-1.31.1,9.24,9.24,0,0,1-4.51-1.27c-1.85-1-3.74-2-5.67-2.81a9.31,9.31,0,0,0-7.9,0c-2.11,1-4.08,2.17-6.16,3a12.89,12.89,0,0,1-4.44,1,4.14,4.14,0,0,0-2.78.86,3.53,3.53,0,0,0-1,2.72h.77a2.78,2.78,0,0,1,.76-2.16,3.4,3.4,0,0,1,2.28-.67,13.62,13.62,0,0,0,4.71-1c2.16-.86,4.14-2.07,6.19-3a8.55,8.55,0,0,1,7.27,0c1.91.85,3.78,1.78,5.61,2.78a10,10,0,0,0,4.88,1.36,9,9,0,0,0,1.43-.11h.13a1.49,1.49,0,0,1,.48.09.67.67,0,0,1,.28.17,4.39,4.39,0,0,1,1,2.64,3.68,3.68,0,0,1-.47,1.75,2,2,0,0,1-.64.79,1.87,1.87,0,0,1-1.05.24h-.65a11.07,11.07,0,0,0-4.82,1c-5,2.5-7.48,3.71-9.82,3.71s-4.8-1.2-9.8-3.72a11.5,11.5,0,0,0-4.92-1,3.23,3.23,0,0,1-2.17-.63,2.57,2.57,0,0,1-.72-2v-.07h-.38" transform="translate(-195.01 -170.92)"/><path class="cls-2" d="M250.47,210.66a8.77,8.77,0,0,0-3.67.83c-2.05.94-4,2.15-6.19,3a13.62,13.62,0,0,1-4.71,1,3.4,3.4,0,0,0-2.28.67,2.78,2.78,0,0,0-.76,2.16h0v.07a2.57,2.57,0,0,0,.72,2,3.23,3.23,0,0,0,2.17.63,11.5,11.5,0,0,1,4.92,1c5,2.51,7.44,3.72,9.77,3.72h0c2.34,0,4.8-1.21,9.79-3.71a11.07,11.07,0,0,1,4.82-1h.65a1.87,1.87,0,0,0,1.05-.24,2,2,0,0,0,.64-.79,3.68,3.68,0,0,0,.47-1.75,4.39,4.39,0,0,0-1-2.64.67.67,0,0,0-.28-.17,1.5,1.5,0,0,0-.48-.09H266a9,9,0,0,1-1.43.11,10,10,0,0,1-4.88-1.36c-1.83-1-3.71-1.94-5.61-2.78a8.83,8.83,0,0,0-3.6-.79" transform="translate(-195.01 -170.92)"/><path class="cls-3" d="M232.86,218.34a2.78,2.78,0,0,1,.76-2.16,3.4,3.4,0,0,1,2.28-.67,13.62,13.62,0,0,0,4.71-1c2.16-.86,4.14-2.07,6.19-3a8.55,8.55,0,0,1,7.27,0c1.91.85,3.78,1.78,5.61,2.78a10,10,0,0,0,4.88,1.36,9,9,0,0,0,1.43-.11h.13a1.5,1.5,0,0,1,.48.09.67.67,0,0,1,.28.17,4.39,4.39,0,0,1,1,2.64,3.68,3.68,0,0,1-.47,1.75,2,2,0,0,1-.64.79,1.87,1.87,0,0,1-1.05.24h-.65a11.07,11.07,0,0,0-4.82,1c-5,2.49-7.46,3.71-9.79,3.71h0c-2.34,0-4.79-1.21-9.77-3.72a11.5,11.5,0,0,0-4.92-1,3.23,3.23,0,0,1-2.17-.63,2.57,2.57,0,0,1-.72-2v-.07h0" transform="translate(-195.01 -170.92)"/><path class="cls-4" d="M252.82,196.53s-5.66-1.39-10.93,4.41-4,10.13,3.26,7.27,11.6,2,14.38,0S262.7,201.8,252.82,196.53Z" transform="translate(-195.01 -170.92)"/><path class="cls-4" d="M248.13,240.13s5.66,1.39,10.93-4.41,4-10.13-3.26-7.27-11.6-2-14.38,0S238.26,234.86,248.13,240.13Z" transform="translate(-195.01 -170.92)"/></svg>