<svg id="Layer_1" data-name="Layer 1" xmlns="http://www.w3.org/2000/svg" viewBox="0 0 78.15 78.14"><defs><style>.cls-1{fill:#7b6648;}</style></defs><title>5</title><path class="cls-1" d="M256.67,223a32.89,32.89,0,1,1-32.89,32.89A32.92,32.92,0,0,1,256.67,223m0-6.19a39.07,39.07,0,1,0,39.07,39.07,39.07,39.07,0,0,0-39.07-39.07Z" transform="translate(-217.6 -216.78)"/><polygon class="cls-1" points="40.46 36.57 49.25 32.11 49.25 20.67 40.46 25.14 40.46 36.57"/><polygon class="cls-1" points="37.69 41.09 37.68 41.09 28.9 45.55 28.9 56.99 37.69 52.52 37.69 41.09"/><polygon class="cls-1" points="17.34 52.52 26.13 56.99 26.13 45.55 17.34 41.09 17.34 52.52"/><polygon class="cls-1" points="36.02 38.83 27.52 34.51 19.01 38.83 27.52 43.15 36.02 38.83"/><polygon class="cls-1" points="30.57 18.41 39.07 22.74 47.58 18.41 39.07 14.09 30.57 18.41"/><polygon class="cls-1" points="60.8 41.09 52.01 45.55 52.01 56.99 60.8 52.52 60.8 41.09"/><polygon class="cls-1" points="59.13 38.83 50.63 34.51 42.13 38.83 50.63 43.15 59.13 38.83"/><polygon class="cls-1" points="28.9 32.11 37.69 36.57 37.69 25.14 28.9 20.67 28.9 32.11"/><polygon class="cls-1" points="40.46 52.52 49.25 56.99 49.25 45.55 40.46 41.09 40.46 52.52"/><polygon class="cls-1" points="52.01 30.51 66.63 15.89 62.26 11.52 52.01 21.76 52.01 30.51"/><polygon class="cls-1" points="40.46 33.31 40.46 36.57 49.25 32.11 49.25 24.53 40.46 33.31"/><polygon class="cls-1" points="42.13 38.83 43.16 39.36 45.3 37.22 42.13 38.83"/><polygon class="cls-1" points="37.69 36.08 37.36 36.41 37.69 36.57 37.69 36.08"/><polygon class="cls-1" points="19.93 53.84 25.73 56.78 26.13 56.39 26.13 47.64 19.93 53.84"/><polygon class="cls-1" points="17.88 55.9 11.52 62.25 15.89 66.63 23.68 58.84 17.88 55.9"/><polygon class="cls-1" points="40.46 41.09 40.46 42.06 41.1 41.41 40.46 41.09"/><polygon class="cls-1" points="37.68 41.09 28.9 45.55 28.9 53.62 37.69 44.83 37.69 41.09 37.68 41.09"/><polygon class="cls-1" points="36.02 38.83 35.31 38.47 33.83 39.94 36.02 38.83"/></svg>