<svg id="Layer_1" data-name="Layer 1" xmlns="http://www.w3.org/2000/svg" viewBox="0 0 78.15 78.14"><defs><style>.cls-1{fill:#7b6648;}</style></defs><title>6</title><path class="cls-1" d="M256.68,223a32.89,32.89,0,1,1-32.89,32.89A32.92,32.92,0,0,1,256.68,223m0-6.19a39.07,39.07,0,1,0,39.07,39.07,39.07,39.07,0,0,0-39.07-39.07Z" transform="translate(-217.61 -216.78)"/><path class="cls-1" d="M257.58,266a1.33,1.33,0,0,0,1.31,1.08h4.41a1.33,1.33,0,0,0,1.3-1.64l-4.69-19.77a1.33,1.33,0,0,0-1.3-1h-6.41a1.33,1.33,0,0,0-1.3,1l-4.66,19.77a1.33,1.33,0,0,0,1.3,1.64h4.09a1.33,1.33,0,0,0,1.31-1.08l.39-2h3.87Zm-3.5-7.35,1.11-7.29h.13l1,7.29Z" transform="translate(-217.61 -216.78)"/><path class="cls-1" d="M279,249.13V246a1.33,1.33,0,0,0-1.33-1.33h-12a1.33,1.33,0,0,0-1.33,1.33v3.16a1.33,1.33,0,0,0,1.33,1.33h2.63v15.27a1.33,1.33,0,0,0,1.33,1.33h4.11a1.33,1.33,0,0,0,1.33-1.33V250.47h2.63A1.33,1.33,0,0,0,279,249.13Z" transform="translate(-217.61 -216.78)"/><path class="cls-1" d="M246.07,254.56a1.33,1.33,0,0,0-1.33-1.33h-3.55v-2.41h4a1.33,1.33,0,0,0,1.33-1.33V246a1.33,1.33,0,0,0-1.33-1.33H235.7a1.33,1.33,0,0,0-1.33,1.33v19.77a1.33,1.33,0,0,0,1.33,1.33h4.18a1.33,1.33,0,0,0,1.33-1.33v-6.62h3.52a1.33,1.33,0,0,0,1.33-1.33Z" transform="translate(-217.61 -216.78)"/><path class="cls-1" d="M255.51,252.66l.86,6h-2.28l.82-5.38-7.59,7.59-1.08,4.58a1.33,1.33,0,0,0,1.3,1.64h2.31l12.24-12.24-1.68-7.07Z" transform="translate(-217.61 -216.78)"/><path class="cls-1" d="M244.31,268.28a4.1,4.1,0,0,1-.61-1.06,4.11,4.11,0,0,1-3.82,2.62h-1.56l-9.2,9.2,4.37,4.37,13.62-13.62A4.06,4.06,0,0,1,244.31,268.28Z" transform="translate(-217.61 -216.78)"/><polygon class="cls-1" points="57.43 25.09 66.63 15.89 62.26 11.52 48.69 25.09 57.43 25.09"/><path class="cls-1" d="M265.62,244.63a1.33,1.33,0,0,0-1.33,1.33v3.16a1.33,1.33,0,0,0,1.33,1.33h.82l5.83-5.83Z" transform="translate(-217.61 -216.78)"/></svg>