<svg id="Layer_1" data-name="Layer 1" xmlns="http://www.w3.org/2000/svg" viewBox="0 0 124.12 63.88"><defs><style>.cls-1{fill:#7b6648;}</style></defs><title>Fari</title><path class="cls-1" d="M206.14,255.76c-.27-1-.51-2-.76-2.9-.3-1.12-.6-2.25-.93-3.37s-.71-2.32-1.08-3.47-.82-2.46-1.24-3.68c-.32-.94-.65-1.89-1-2.82s-.78-2-1.17-3c-.49-1.23-1-2.47-1.48-3.69-.41-1-.88-1.9-1.3-2.85-.32-.72-.62-1.44-.94-2.16a1.24,1.24,0,0,1,1.31-1.62c1.67.16,3.35.33,5,.4s3.36,0,5,0,3.48,0,5.21-.14,3.56-.34,5.33-.56,3.65-.48,5.48-.73a6,6,0,0,1,1.16-.19c.85.06,1.25.81,1,1.83-.28,1.4-.54,2.8-.84,4.2a17.21,17.21,0,0,1-.58,2.07,1.15,1.15,0,0,1-1.57.75,1.25,1.25,0,0,1-.7-1.62c.42-1.46.79-2.93,1.23-4.57a100.35,100.35,0,0,1-23.85,1.15c1.68,4.37,3.36,8.65,5,13a132.82,132.82,0,0,1,4,13.28c.46-.12.89-.21,1.31-.33,1.64-.48,3.27-1,4.91-1.45,1.13-.32,2.29-.56,3.43-.85l4.86-1.24a7.74,7.74,0,0,1,1.2-.23,1.09,1.09,0,0,1,1.31,1,1.24,1.24,0,0,1-1,1.41c-.51.13-1,.24-1.54.36-1.42.34-2.84.68-4.26,1s-2.93.76-4.4,1.16c-1.14.31-2.26.66-3.39,1l-1.91.54c.18.8.35,1.56.51,2.33s.32,1.54.48,2.31c.2,1,.41,2,.58,3s.32,2,.46,3.07c.26,1.87.54,3.74.77,5.61.16,1.3.26,2.61.38,3.92s.23,2.52.31,3.78.14,2.52.2,3.78c0,.83.06,1.66.08,2.5s-.35,1.1-1.11,1.16a1.4,1.4,0,0,1-1.25-1c-.06-.69-.07-1.38-.1-2.08,0-.88-.1-1.76-.15-2.64s-.1-1.9-.16-2.85c-.08-1.15-.15-2.3-.27-3.44-.22-2.09-.41-4.19-.71-6.27s-.68-4.05-1-6.08q-.36-2-.77-4.06c-.13-.66-.31-1.31-.45-2-.06-.28-.17-.34-.45-.24-.93.32-1.87.6-2.8.91l-4.29,1.47c-1,.35-2.05.7-3.09,1a1.08,1.08,0,0,1-1.2-.51,1,1,0,0,1-.13-1.24,2.47,2.47,0,0,1,1.06-.64q2.77-1,5.57-1.93c1.43-.48,2.88-.92,4.32-1.38A2.31,2.31,0,0,0,206.14,255.76Z" transform="translate(-194.65 -225.03)"/><path class="cls-1" d="M305.8,258.88c.11-.66.22-1.29.33-1.93a31.23,31.23,0,0,1,2.14-7.43,10.65,10.65,0,0,1,2.22-3.29,4.49,4.49,0,0,1,4.13-.85,5.72,5.72,0,0,1,2.92,1.91,6.34,6.34,0,0,1,1,2.09,9.72,9.72,0,0,1-.13,4.9c-.71,2.73-1.42,5.46-2.24,8.16-.74,2.46-1.58,4.89-2.46,7.31-.8,2.18-1.72,4.32-2.59,6.48-.08.2-.17.39-.26.58a1.32,1.32,0,0,1-1.58.68,1,1,0,0,1-.82-1.18,11.35,11.35,0,0,1,.58-1.41c.68-1.65,1.36-3.3,2-5,.51-1.31,1-2.62,1.46-4s1-2.94,1.43-4.42.84-2.76,1.23-4.15c.46-1.61,1-3.21,1.32-4.83a4.54,4.54,0,0,0-.79-3.84,2.4,2.4,0,0,0-3.38-.54,6.69,6.69,0,0,0-2.55,4c-.33,1.15-.68,2.3-.92,3.47-.33,1.63-.66,3.27-.84,4.92-.19,1.82-.22,3.66-.31,5.49a1.1,1.1,0,0,1-1.12,1.08,1.22,1.22,0,0,1-1.33-1.11c-.33-1.51-.65-3-1.09-4.5s-1-3-1.59-4.45c-.39-1-.9-1.9-1.33-2.86s-.82-1.94-1.27-2.89a9.85,9.85,0,0,0-1-1.64,1,1,0,0,0-1.24-.38,1.26,1.26,0,0,0-.62,1.2c.14,1.48.27,3,.5,4.44s.57,3.24,1,4.83c.29,1.19.71,2.35,1.11,3.52.33,1,.67,2,1.07,2.94s.88,1.9,1.34,2.83c.34.69.7,1.38,1.07,2.06s.81,1.5,1.26,2.22a1,1,0,0,1,0,1.15,1.21,1.21,0,0,1-1.15.52,1.47,1.47,0,0,1-1.21-.89c-.58-1.09-1.24-2.13-1.81-3.22s-1-1.95-1.38-2.95c-.5-1.16-1-2.34-1.41-3.53-.26-.7-.48-1.43-.69-2.15s-.52-1.72-.74-2.59-.37-1.66-.55-2.5c-.12-.58-.27-1.15-.35-1.73-.2-1.46-.39-2.93-.55-4.39a5.57,5.57,0,0,1,.36-2.62,2.69,2.69,0,0,1,4.43-1.18,9.81,9.81,0,0,1,2.47,3c.76,1.44,1.53,2.87,2.2,4.35s1.1,2.76,1.64,4.14C305.65,258.82,305.69,258.83,305.8,258.88Z" transform="translate(-194.65 -225.03)"/><path class="cls-1" d="M238.1,281.48c-1.08.86-2.11,1.67-3.13,2.5a10.71,10.71,0,0,1-5.21,2.53,5.05,5.05,0,0,1-3.19-.33,3.13,3.13,0,0,1-1.63-2,11.14,11.14,0,0,1,.88-7.75,5.8,5.8,0,0,1,4.39-3.36,7.77,7.77,0,0,1,5.66,1.24c.62.39,1.2.84,1.84,1.3a1.25,1.25,0,0,0,.07-.32c0-1.43-.09-2.87-.06-4.3a9.28,9.28,0,0,0-.56-3.33,5.27,5.27,0,0,0-2.19-2.94,2.85,2.85,0,0,0-2.33-.24A5.08,5.08,0,0,0,230,266.2a14.26,14.26,0,0,0-1.47,2.59c-.35.75-.55,1.58-.83,2.37a1.28,1.28,0,0,1-1.54.62,1.15,1.15,0,0,1-.75-1.3,17.12,17.12,0,0,1,2.88-5.62,8.73,8.73,0,0,1,2.36-2.06,5.93,5.93,0,0,1,1.95-.64,6.61,6.61,0,0,1,5.21,1.55,5.9,5.9,0,0,1,2.09,3.17,15.35,15.35,0,0,1,.5,4.43c0,1.74-.07,3.49-.1,5.23,0,.26,0,.52,0,.83l1.8-.6a1.26,1.26,0,0,1,1.66,1,1.31,1.31,0,0,1-1,1.42c-.7.2-1.38.49-2.06.75-.26.1-.29.27-.24.55.11.59.25,1.19-.39,1.64A1.15,1.15,0,0,1,238.1,281.48Zm-.76-2.21c-.36-.49-.68-1-1-1.41a7.73,7.73,0,0,0-3-2.39,3.73,3.73,0,0,0-4.6,1,5.34,5.34,0,0,0-1.47,4.47,3,3,0,0,0,1.38,2.22,3.93,3.93,0,0,0,4.17-.33c.73-.55,1.51-1,2.24-1.6S236.54,279.93,237.34,279.27Z" transform="translate(-194.65 -225.03)"/><path class="cls-1" d="M251.42,275.45c.12-1.35.23-2.7.36-4.05s.26-2.57.4-3.86.28-2.77.46-4.15a10.78,10.78,0,0,1,1.6-4.72,4.6,4.6,0,0,1,2-1.68,2.07,2.07,0,0,1,2.44.92,11.46,11.46,0,0,1,1.48,4.2c.18,1.08.31,2.17.46,3.25a1,1,0,0,1-1,1,1.34,1.34,0,0,1-1.36-1.57,6.36,6.36,0,0,0-.24-3.16,3.55,3.55,0,0,0-.87-1.27.68.68,0,0,0-1.17.33,18,18,0,0,0-.66,2.41c-.3,1.64-.57,3.28-.77,4.94-.17,1.44-.23,2.9-.36,4.35s-.27,2.77-.38,4.16c-.16,1.91-.28,3.82-.44,5.72a24.67,24.67,0,0,1-.34,2.52,1,1,0,0,1-1.11.72c-.57,0-.91-.13-1.06-.72-.3-1.19-.54-2.4-.81-3.6-.21-.93-.43-1.85-.63-2.78-.23-1.09-.44-2.19-.66-3.28s-.47-2.22-.71-3.33c-.3-1.41-.59-2.82-.89-4.23-.23-1.09-.48-2.18-.72-3.28-.29-1.3-.59-2.59-.85-3.89a1.08,1.08,0,0,1,.78-1.32,1.33,1.33,0,0,1,1.47.43,3.19,3.19,0,0,1,.28.88c.37,1.7.74,3.4,1.09,5.11.29,1.4.54,2.81.83,4.2.34,1.59.71,3.17,1.06,4.76l.21,1Z" transform="translate(-194.65 -225.03)"/><path class="cls-1" d="M263.51,252.13a1.06,1.06,0,0,1,1.17.83c.43,2.14.88,4.28,1.29,6.43.31,1.6.57,3.21.87,4.81s.64,3.16.92,4.74c.37,2.11.71,4.22,1.06,6.33s.65,3.93,1,5.89c.15.88-.23,1.5-1,1.59s-1.24-.41-1.37-1.26c-.25-1.69-.57-3.37-.85-5.05-.13-.79-.24-1.59-.38-2.38-.2-1.13-.41-2.27-.61-3.4s-.36-2.14-.56-3.21c-.31-1.68-.65-3.35-1-5-.25-1.34-.47-2.69-.73-4s-.56-2.67-.84-4a7,7,0,0,1-.16-1C262.27,252.62,262.68,252.21,263.51,252.13Z" transform="translate(-194.65 -225.03)"/><path class="cls-1" d="M258.88,243.76a1.25,1.25,0,0,1,.63-1.1,1.19,1.19,0,0,1,1.38.14c.6.51,1.21,1,1.8,1.53a1.42,1.42,0,0,1,.12,1.49,1.11,1.11,0,0,1-1.29.53,3.44,3.44,0,0,1-.84-.57c-.51-.44-1-.9-1.47-1.38A2.45,2.45,0,0,1,258.88,243.76Z" transform="translate(-194.65 -225.03)"/></svg>