<svg id="Layer_1" data-name="Layer 1" xmlns="http://www.w3.org/2000/svg" viewBox="0 0 29.87 29.87"><defs><style>.cls-1{fill:#f2d1c1;}</style></defs><title>FB 2</title><path class="cls-1" d="M237,214.21H220.32a6.6,6.6,0,0,0-6.6,6.6v16.66a6.6,6.6,0,0,0,6.6,6.6h8.79a.49.49,0,0,1-.1-.28v-10.3h-3.24a.51.51,0,0,1-.51-.51v-4.08a.51.51,0,0,1,.51-.51H229V225.6c0-3.71,2.34-6.11,6-6.11h3.22a.51.51,0,0,1,.5.51v3.79a.51.51,0,0,1-.51.51H236c-1.49,0-1.77.58-1.77,1.73v2.39H238a.5.5,0,0,1,.36.15.51.51,0,0,1,.15.36V233a.51.51,0,0,1-.51.51h-3.78v10.3a.49.49,0,0,1-.1.28H237a6.6,6.6,0,0,0,6.6-6.6V220.82A6.6,6.6,0,0,0,237,214.21Z" transform="translate(-213.72 -214.21)"/></svg>