<svg id="Layer_1" data-name="Layer 1" xmlns="http://www.w3.org/2000/svg" viewBox="0 0 24.59 24.59"><defs><style>.cls-1{fill:#7b6648;}</style></defs><title>FB</title><path class="cls-1" d="M263.29,245.2H249.57a5.44,5.44,0,0,0-5.44,5.44v13.72a5.44,5.44,0,0,0,5.44,5.44h7.24a.41.41,0,0,1-.08-.23v-8.48h-2.66a.42.42,0,0,1-.42-.42v-3.36a.42.42,0,0,1,.42-.42h2.66v-2.32a4.65,4.65,0,0,1,4.9-5h2.65a.42.42,0,0,1,.42.42v3.12a.42.42,0,0,1-.42.42h-1.79c-1.23,0-1.46.48-1.46,1.42v2h3.12a.42.42,0,0,1,.29.12.42.42,0,0,1,.12.29v3.36a.42.42,0,0,1-.42.42H261v8.48a.4.4,0,0,1-.08.23h2.33a5.44,5.44,0,0,0,5.44-5.44V250.64A5.44,5.44,0,0,0,263.29,245.2Z" transform="translate(-244.13 -245.2)"/></svg>