<svg id="Layer_1" data-name="Layer 1" xmlns="http://www.w3.org/2000/svg" viewBox="0 0 81.43 104.86"><defs><style>.cls-1{fill:none;}.cls-2{fill:#b55366;opacity:0.7;}</style></defs><title>glass 1</title><path class="cls-1" d="M268.17,265.08H253c-5.4-8.27-7.28-17.34-8.28-27H270.6a14.2,14.2,0,0,1,.53,2.53c.46,15.67-.11,31.26-4.19,46.5-1.18,4.42-2.78,8.75-4.4,13s-4.89,6.11-9.33,6.12c-5.62,0-11.24,0-16.86,0-4.73,0-7.84-2.18-9.7-6.54a95.18,95.18,0,0,1-7.13-28.42c-.9-9.33-1-18.74-1.31-28.12a42.72,42.72,0,0,1,.41-5.06h11.05L228.63,265h-7a40.32,40.32,0,0,0,0,4.43,108.77,108.77,0,0,0,6.75,28.21c2.11,5.23,3.58,6.21,9.22,6.22,5.21,0,10.42,0,15.63,0,3,0,5.44-1.13,6.72-3.93C264.93,289,267,277.46,268.17,265.08Z" transform="translate(-215.61 -204)"/><path class="cls-2" d="M252,218.53c6.31,3.37,12.53,6.89,18.91,10.12a31.86,31.86,0,0,0,13.83,3.63,16.54,16.54,0,0,0,10.89-3.42,9.16,9.16,0,0,0,1.45-2l-.55-.76a10.83,10.83,0,0,0-2.46.91,15.57,15.57,0,0,1-9.56,2.68,32.8,32.8,0,0,1-14-4c-7.79-4-15.46-8.34-23.17-12.54-.11-.06-.11-.34-.09-.26l5.26-5.78c4.45,1.88,8.54,3.75,12.73,5.35,3.74,1.43,7.67,2.48,11.69,1.88a22.79,22.79,0,0,0,6.19-2.29c1-.47,1.37-1.5.22-2.46-.32,0-.7,0-.9.11-3.59,2.77-7.66,2.84-11.69,1.65-4.39-1.29-8.65-3-12.92-4.69-1.88-.73-3.66-1.73-5.64-2.68l-3.84,3.69c-1.54,1.49-2.85,3.41-4.66,4.4-6.15,3.35-9.09,8.89-11.07,15.18-.82,2.61-1.44,5.29-2.26,8.32h-7.56c-6.41,0-6.84.39-7,6.93-.36,14,.38,28,3.54,41.72a139.37,139.37,0,0,0,5.39,16.9,11,11,0,0,0,10.82,7.62c6.13.12,12.27.14,18.4,0a11.24,11.24,0,0,0,10.8-7.21,86.61,86.61,0,0,0,3.06-8.22c1-2.94,1.81-5.89,2.49-8.92.09-.47.18-.95.28-1.42,2.29-10.9,3-22.7,3.43-37.41-.1-2.13-.11-4-.3-5.8-.36-3.44-1.22-4.18-4.7-4.19-7,0-13.9,0-20.85,0-1.09,0-2.19-.1-3.34-.15-1.07-6.93-.62-13.55.05-20.58C247.44,216.22,249.73,217.33,252,218.53Zm1.28,85.35c3,0,5.44-1.13,6.72-3.93,5-10.91,7.08-22.49,8.2-34.86H253c-5.4-8.27-7.28-17.34-8.28-27H270.6a14.2,14.2,0,0,1,.53,2.53c.46,15.67-.11,31.26-4.19,46.5-1.18,4.42-2.78,8.75-4.4,13s-4.89,6.11-9.33,6.12c-5.62,0-11.24,0-16.86,0-4.73,0-7.84-2.18-9.7-6.54a95.18,95.18,0,0,1-7.13-28.42c-.9-9.33-1-18.74-1.31-28.12a42.73,42.73,0,0,1,.41-5.06h11.05L228.63,265h-7a40.32,40.32,0,0,0,0,4.43,108.76,108.76,0,0,0,6.75,28.21c2.11,5.23,3.58,6.21,9.22,6.22C242.82,303.89,248,303.86,253.24,303.88Z" transform="translate(-215.61 -204)"/></svg>