<svg id="Layer_1" data-name="Layer 1" xmlns="http://www.w3.org/2000/svg" viewBox="0 0 70.6 110.82"><defs><style>.cls-1{fill:none;}.cls-2{opacity:0.7;}.cls-3{fill:#b55366;}</style></defs><title>glass 3</title><path class="cls-1" d="M273.53,269.66,264.95,272l-.37-.66,1.49-2.56c2.22-3.87,3.43-8,1.85-12.32-1.89-5.14,0-9.57,1.84-14.23h6.32a29.06,29.06,0,0,1,.44,3.13c.53,16.92-.38,33.71-5.31,50a87.33,87.33,0,0,1-3.7,9.72,8.43,8.43,0,0,1-8,5.27c-6.33.13-12.67.17-19,0-3.92-.11-6.65-2.28-8.22-5.9a101.19,101.19,0,0,1-6.86-24.72,181.78,181.78,0,0,1-1.82-33.31c0-.92.07-1.84.16-2.75a7.84,7.84,0,0,1,.45-1.38h34.7a9.72,9.72,0,0,1-5,7.24,15.3,15.3,0,0,0-7.08,7.37,21.3,21.3,0,0,0-1.52,10.9c-6.35-.93-12.63-2.05-18.79,1.72.58,4.17,1.06,8.41,1.77,12.6a98.07,98.07,0,0,0,5.84,20.58c1.51,3.7,4,5.41,8,5.35q8-.14,15.94,0c4,.07,6.46-1.72,8-5.4a103.89,103.89,0,0,0,6.46-24.52C272.92,275.38,273.18,272.65,273.53,269.66Z" transform="translate(-221.02 -202.16)"/><path class="cls-1" d="M248.32,268.72c-1.73-6.51.45-13.08,5.46-16.08a16.68,16.68,0,0,0,7.64-8.81,6.53,6.53,0,0,1,.55-1.08,4.53,4.53,0,0,1,.53-.58h4.34c-.44,1.46-.74,2.74-1.21,3.94a13.86,13.86,0,0,0-.31,10.17c1.85,5.08.06,9.38-2.92,13.44a3.26,3.26,0,0,1-3.69,1.47C255.26,270.34,251.79,269.54,248.32,268.72Z" transform="translate(-221.02 -202.16)"/><path class="cls-1" d="M277.93,220.06h-9.06c.91-4.11,1.55-7.93,2.64-11.62a5.73,5.73,0,1,1,10.56,4.4C280.79,215.38,279.25,217.78,277.93,220.06Z" transform="translate(-221.02 -202.16)"/><path class="cls-1" d="M276,222.94l-8.3,16.57-4.18.2,5.06-16.77Z" transform="translate(-221.02 -202.16)"/><g class="cls-2"><path class="cls-3" d="M278.26,271.06q.31-3.5.58-7a6.06,6.06,0,0,1,.22-1.18c.21-4.78.22-9.18.27-13.35-.12-1.39-.27-2.89-.38-4.4-.35-5.09-.65-5.38-5.57-5.45-.77,0-1.55-.14-2.66-.24A85.83,85.83,0,0,1,279.33,223c4.28-.58,8.41-.27,12.29-2.1-1.21-3.08-3.26-1-4.76-1.14a37.7,37.7,0,0,0-6,.5c1.36-2.46,2.5-4.27,3.4-6.19a8.21,8.21,0,0,0-7.19-11.88c-4.11-.12-7.34,2.41-8.34,6.66-.83,3.55-1.56,7.12-2.38,10.84-3.53-.21-6.67-.65-9.48-2.88a45.74,45.74,0,0,1,6-2.11c1-.32,2.38-.48,1.42-2.51a15.13,15.13,0,0,0-8.75,2.57c-1.86,1.31-1.9,3.37.07,4.51a32.38,32.38,0,0,0,6.22,2.39,43.22,43.22,0,0,0,4.26.92l-5.33,17.14H227.34c-5.43,0-6,.62-6.31,6.12,0,.2,0,.41,0,.61.36,9,.4,18,1.15,26.92a100.68,100.68,0,0,0,7.82,32c2.1,4.82,5.75,7.38,10.92,7.51,6.23.15,12.47.16,18.7,0a11,11,0,0,0,10.31-7c1-2.35,2-4.76,2.76-7.21a147.84,147.84,0,0,0,5-21.08C277.87,275.34,278.07,273.19,278.26,271.06Zm-6.75-62.61a5.73,5.73,0,1,1,10.56,4.4c-1.28,2.53-2.82,4.93-4.14,7.21h-9.06C269.78,216,270.42,212.13,271.51,208.45Zm-3,14.5H276l-8.3,16.57-4.18.2Zm-7.12,20.88a6.51,6.51,0,0,1,.55-1.08,4.59,4.59,0,0,1,.53-.58h4.34c-.44,1.46-.74,2.74-1.21,3.94a13.86,13.86,0,0,0-.31,10.17c1.85,5.08.06,9.38-2.92,13.44a3.26,3.26,0,0,1-3.69,1.47c-3.46-.83-6.93-1.64-10.4-2.46-1.73-6.51.45-13.08,5.46-16.08A16.68,16.68,0,0,0,261.42,243.83Zm6.08,61.24a8.43,8.43,0,0,1-8,5.27c-6.33.13-12.67.17-19,0-3.92-.11-6.65-2.28-8.22-5.9a101.19,101.19,0,0,1-6.86-24.72,181.78,181.78,0,0,1-1.82-33.31c0-.92.07-1.84.16-2.75a7.84,7.84,0,0,1,.45-1.38h34.7a9.72,9.72,0,0,1-5,7.24,15.31,15.31,0,0,0-7.08,7.37,21.3,21.3,0,0,0-1.52,10.9c-6.35-.93-12.63-2-18.79,1.72.58,4.17,1.06,8.41,1.77,12.6a98.11,98.11,0,0,0,5.84,20.58c1.51,3.7,4,5.41,8,5.35q8-.14,15.94,0c4,.07,6.46-1.72,8-5.4a103.91,103.91,0,0,0,6.46-24.52c.4-2.71.65-5.43,1-8.43L264.95,272l-.37-.66,1.49-2.56c2.22-3.87,3.43-8,1.85-12.32-1.89-5.14,0-9.57,1.84-14.23h6.32a29,29,0,0,1,.44,3.13c.53,16.92-.38,33.71-5.31,50A87.33,87.33,0,0,1,267.5,305.07Z" transform="translate(-221.02 -202.16)"/></g></svg>