<svg id="Layer_1" data-name="Layer 1" xmlns="http://www.w3.org/2000/svg" viewBox="0 0 66.51 116.05"><defs><style>.cls-1{opacity:0.7;}.cls-2{fill:none;}.cls-3{fill:#b55366;}</style></defs><title>glass 2</title><g class="cls-1"><path class="cls-2" d="M252.26,308.91c-2.86,0-5.72,0-8.57,0a6.84,6.84,0,0,1-5.83-2.82c-2.58-3.52-2.22-6.23,1.21-8.94,4.34-3.42,9-6,14.8-5.57,5.59.46,10.09,3.21,13.85,7.11,2.58,2.67.13,8.63-3.87,9.79a14.31,14.31,0,0,1-3.63.43c-2.65.06-5.31,0-8,0Z" transform="translate(-223.4 -197.85)"/><path class="cls-3" d="M236.4,302.69c2.11,5.23,3.58,6.21,9.22,6.22,5.21,0,10.42,0,15.63,0,3,0,5.44-1.13,6.72-3.93,4.95-10.86,7.06-22.39,8.18-34.71H229.62a35.44,35.44,0,0,0,0,4.2A108.76,108.76,0,0,0,236.4,302.69Z" transform="translate(-223.4 -197.85)"/><path class="cls-3" d="M272.81,243.13h5.62a18.9,18.9,0,0,1,.51,2.79c.47,16.4-.36,32.69-4.82,48.59a111.07,111.07,0,0,1-3.78,10.67c-1.64,4.17-4.89,6.13-9.33,6.14-5.72,0-11.44,0-17.17,0-4.44,0-7.5-2.1-9.28-6.23a103,103,0,0,1-7.19-27.47A179.38,179.38,0,0,1,226,247c0-1.28.33-2.55.52-3.94,11.73,0,35.74,0,35.74,0l1.12-2.51H230.45c-6.35,0-6.81.47-7,7a190.66,190.66,0,0,0,1.84,33,103.81,103.81,0,0,0,6.9,25.35c2.08,4.92,5.71,7.7,11,7.84q9.34.25,18.7,0a11,11,0,0,0,10.34-6.95c1.19-2.67,2.19-5.43,3.11-8.21-.2.55-.39,1.12-.6,1.64.21-.52.4-1.09.6-1.64.1-.32.23-.63.33-.95,0-.12.09-.2.13-.31a79.64,79.64,0,0,0,2.1-7.86c.19-1.08.38-2.06.62-3,.86-4.46,1.52-9.15,2-13.66l.73-8.13c.46-6.34.58-11.61.49-14.24-.21-2.22-.37-4.34-.62-6.44-.32-2.61-1.1-3.28-3.77-3.41-1.34-.06-4.59,0-4.59,0Z" transform="translate(-223.4 -197.85)"/><rect class="cls-3" x="38.36" y="42.77" width="11.43" height="2.51"/><path class="cls-3" d="M268.33,252.43c1.61,6.19-2.57,13.95-7.9,15.68-2.77.9-4.58.06-5.68-2.69a8.59,8.59,0,0,1-.51-1.95c-.11-.75-.1-1.52-.17-2.65C254.43,253.09,261.75,256.8,268.33,252.43Z" transform="translate(-223.4 -197.85)"/><path class="cls-3" d="M280.91,223.73c2.51-4.56,5.26-9,7.81-13.53a7.68,7.68,0,0,0-.5-8.93,7.89,7.89,0,0,0-8.37-3.21,7.73,7.73,0,0,0-6.37,6.28c-.86,3.89-1.64,7.79-2.49,11.68a94.16,94.16,0,0,1-6,19.39h0a33.82,33.82,0,0,1-1.89,4.5,9.18,9.18,0,0,1-4.22,5.14c-7.56,4.05-9.65,10.7-8.7,18.62a14.36,14.36,0,0,0,2.29,5.89c2.08,3.18,5.75,4.05,9.54,2.73,7.36-2.57,12.57-12,10.82-19.6-1.15-5-1.29-7.36,0-10.94a41.62,41.62,0,0,1,2.27-6.56h0C277.21,231,278.94,227.29,280.91,223.73Zm-8.58,11.51h0l-.84,2.63h0c-.53,1.78-.92,3.42-1.49,5a13.58,13.58,0,0,0-.14,8.71,15.11,15.11,0,0,1-6.55,17.24c-4.85,3.12-9,1.49-10.51-4.1-1.81-6.81.63-13.39,6.54-17a14.41,14.41,0,0,0,6.16-7c.39-.94.88-1.83,1.43-2.94h0l1.37-3.41a.7.7,0,0,1,0-.21c3.59-9,5.26-18.45,7.21-27.84.88-4.25,2.92-6.12,6.5-5.86a5.46,5.46,0,0,1,5,7.15,19.2,19.2,0,0,1-1.61,3.28q-6.19,11.62-12.4,23.23C272.82,234.53,272.58,234.85,272.33,235.24Z" transform="translate(-223.4 -197.85)"/></g></svg>