<svg id="Layer_1" data-name="Layer 1" xmlns="http://www.w3.org/2000/svg" viewBox="0 0 29.87 29.88"><defs><style>.cls-1{fill:#b55366;}</style></defs><title>IG 1</title><path class="cls-1" d="M243.52,229q0,3.8,0,7.59a9.18,9.18,0,0,1-.49,3.44,6.12,6.12,0,0,1-4.84,4,13,13,0,0,1-2.25.19q-7.44,0-14.88,0a8.19,8.19,0,0,1-3.77-.73,6.1,6.1,0,0,1-3.44-4.57,14,14,0,0,1-.19-2.37q0-7.3,0-14.6a9,9,0,0,1,.49-3.41,6.17,6.17,0,0,1,5.16-4.05,15.32,15.32,0,0,1,2.19-.13h14.16a9.85,9.85,0,0,1,3.57.46,6.22,6.22,0,0,1,4.15,5.22,12.52,12.52,0,0,1,.11,1.73c0,2.41,0,4.81,0,7.22Zm-15,11.36v0c1.35,0,2.71,0,4.06,0a7.91,7.91,0,0,0,1.51-.13,6.83,6.83,0,0,0,5.53-6.85q0-4.09,0-8.18a7.32,7.32,0,0,0-.13-1.45,6.83,6.83,0,0,0-6.82-5.53q-4.12,0-8.24,0a7.15,7.15,0,0,0-1.41.13,6.83,6.83,0,0,0-5.54,6.81q0,4.14,0,8.27a8.11,8.11,0,0,0,.16,1.54,6.76,6.76,0,0,0,6.19,5.35c1.56.08,3.14,0,4.71,0" transform="translate(-213.65 -214.42)"/><path class="cls-1" d="M228.58,238.53h-4.18a4.93,4.93,0,0,1-5-5q0-4.2,0-8.4a4.93,4.93,0,0,1,5-5h8.37a4.93,4.93,0,0,1,5,5q0,4.18,0,8.37a4.93,4.93,0,0,1-5,5h-4.18m5.52-9.18a5.51,5.51,0,1,0-5.49,5.52,5.53,5.53,0,0,0,5.49-5.52m.53-7.37a1.36,1.36,0,1,0,1.36,1.35,1.35,1.35,0,0,0-1.36-1.35" transform="translate(-213.65 -214.42)"/><path class="cls-1" d="M232.18,229.35a3.59,3.59,0,1,1-3.61-3.58,3.58,3.58,0,0,1,3.61,3.58" transform="translate(-213.65 -214.42)"/></svg>