<svg id="Layer_1" data-name="Layer 1" xmlns="http://www.w3.org/2000/svg" viewBox="0 0 24.59 24.6"><defs><style>.cls-1{fill:#7b6648;}</style></defs><title>IG</title><path class="cls-1" d="M268.65,257.24q0,3.13,0,6.25a7.56,7.56,0,0,1-.41,2.83,5,5,0,0,1-4,3.3,10.68,10.68,0,0,1-1.85.15q-6.12,0-12.25,0a6.75,6.75,0,0,1-3.1-.6,5,5,0,0,1-2.83-3.76,11.53,11.53,0,0,1-.16-2q0-6,0-12a7.42,7.42,0,0,1,.4-2.81,5.08,5.08,0,0,1,4.24-3.34,12.62,12.62,0,0,1,1.8-.11h11.66a8.11,8.11,0,0,1,2.94.38,5.12,5.12,0,0,1,3.42,4.3,10.3,10.3,0,0,1,.09,1.43c0,2,0,4,0,5.94Zm-12.31,9.35v0c1.12,0,2.23,0,3.34,0a6.51,6.51,0,0,0,1.24-.11,5.63,5.63,0,0,0,4.55-5.64q0-3.37,0-6.73a6,6,0,0,0-.11-1.19,5.62,5.62,0,0,0-5.61-4.55q-3.39,0-6.79,0a5.89,5.89,0,0,0-1.16.11,5.63,5.63,0,0,0-4.56,5.61q0,3.4,0,6.81a6.68,6.68,0,0,0,.13,1.27,5.57,5.57,0,0,0,5.09,4.41c1.29.06,2.58,0,3.88,0" transform="translate(-244.05 -245.2)"/><path class="cls-1" d="M256.34,265H252.9A4.06,4.06,0,0,1,248.8,261q0-3.46,0-6.91a4.06,4.06,0,0,1,4.1-4.09h6.89a4.06,4.06,0,0,1,4.11,4.11q0,3.44,0,6.89a4.06,4.06,0,0,1-4.11,4.1h-3.45m4.54-7.56a4.53,4.53,0,1,0-4.52,4.54,4.56,4.56,0,0,0,4.52-4.54m.44-6.07a1.12,1.12,0,1,0,1.12,1.12,1.11,1.11,0,0,0-1.12-1.12" transform="translate(-244.05 -245.2)"/><path class="cls-1" d="M259.31,257.49a3,3,0,1,1-3-2.95,2.95,2.95,0,0,1,3,2.95" transform="translate(-244.05 -245.2)"/></svg>