<svg id="Layer_1" data-name="Layer 1" xmlns="http://www.w3.org/2000/svg" viewBox="0 0 29.88 29.88"><defs><style>.cls-1{fill:#b55366;}</style></defs><title>Lazada 1</title><path class="cls-1" d="M213.59,218.91V239.8a4.5,4.5,0,0,0,4.5,4.5H239a4.5,4.5,0,0,0,4.5-4.5V218.91a4.5,4.5,0,0,0-4.5-4.5H218.09A4.5,4.5,0,0,0,213.59,218.91Zm8,16.67c-2.36-1.47-4.4-2.74-4.57-2.82a.79.79,0,0,1-.46-.63V223.9a.84.84,0,0,1,.07-.33l6.08,3.34v6h3v-1h-1.89v-4.33l2.71,1.49a2.54,2.54,0,0,0-.53,1.57,2.31,2.31,0,0,0,2.24,2.42h.22v6.68h0a.92.92,0,0,1-.45-.12C227.32,239.14,224.28,237.25,221.6,235.58Zm13.75-2.69V232h-2.48l2.43-2.9v-.82h-3.39l8.62-4.73a.84.84,0,0,1,.07.34v8.31a.8.8,0,0,1-.46.65c-.17.08-2.23,1.37-4.62,2.86-2.71,1.68-5.77,3.59-6.46,4a.93.93,0,0,1-.47.12h0V233a1.86,1.86,0,0,0,1.13-.68v.62h1v-4l.83-.46v.74H234l-2.44,2.91v.81Zm-5.55-2.32a1.4,1.4,0,0,1-1.2,1.48v-2l.89-.49A1.59,1.59,0,0,1,229.8,230.57Zm-1.26-.58-1-.56a1.38,1.38,0,0,1,1.91.08Zm-.08.06v2h0a1.39,1.39,0,0,1-1.37-1.49,1.56,1.56,0,0,1,.39-1.07Zm-11.51-7,.07,0c.91-.57,4-2.43,4.46-2.7a.73.73,0,0,1,.37-.1.76.76,0,0,1,.35.09s4.28,2.79,4.94,3a3.38,3.38,0,0,0,1.47.31,3.28,3.28,0,0,0,1.64-.4c.64-.34,4.73-2.93,4.78-2.93a.65.65,0,0,1,.34-.09.72.72,0,0,1,.37.1c.56.31,4.35,2.63,4.51,2.73a.88.88,0,0,1,.31.32l-8.82,4.84h-.13v.07l-.83.46v-.53h-1v.62a1.86,1.86,0,0,0-1.49-.71,2.15,2.15,0,0,0-1.65.77l-2.77-1.52v-.83h-1.1v.22l-6.1-3.35A.9.9,0,0,1,216.94,223.08Zm11.15,16.6a1,1,0,0,0,.35.06h0v.06a1,1,0,0,1-.39-.12Z" transform="translate(-213.59 -214.42)"/></svg>