<svg id="Layer_1" data-name="Layer 1" xmlns="http://www.w3.org/2000/svg" viewBox="0 0 24.6 24.6"><defs><style>.cls-1{fill:#7b6648;}</style></defs><title>Lazada</title><path class="cls-1" d="M244,248.9v17.19a3.7,3.7,0,0,0,3.7,3.7h17.19a3.7,3.7,0,0,0,3.7-3.7V248.9a3.7,3.7,0,0,0-3.7-3.7H247.68A3.7,3.7,0,0,0,244,248.9Zm6.6,13.72c-1.95-1.21-3.63-2.26-3.76-2.33a.65.65,0,0,1-.38-.52V253a.69.69,0,0,1,.05-.28l5,2.75v4.92h2.45v-.86h-1.55V256l2.23,1.23a2.09,2.09,0,0,0-.44,1.29,1.91,1.91,0,0,0,1.84,2h.18V266h0a.76.76,0,0,1-.37-.1C255.27,265.55,252.77,264,250.57,262.62Zm11.32-2.22v-.76h-2l2-2.39v-.67h-2.79l7.1-3.9a.7.7,0,0,1,.06.28v6.84a.66.66,0,0,1-.38.53c-.14.07-1.84,1.13-3.8,2.35-2.23,1.39-4.75,3-5.32,3.28a.76.76,0,0,1-.38.1h0v-5.61a1.53,1.53,0,0,0,.93-.56v.51h.84v-3.3l.68-.38v.61h2l-2,2.4v.66Zm-4.57-1.91a1.15,1.15,0,0,1-1,1.22v-1.63l.73-.4A1.31,1.31,0,0,1,257.32,258.49Zm-1-.47-.84-.46a1.13,1.13,0,0,1,1.57.07Zm-.07.05v1.64h0a1.14,1.14,0,0,1-1.13-1.22,1.28,1.28,0,0,1,.32-.88Zm-9.48-5.74.06,0c.75-.47,3.27-2,3.67-2.23a.6.6,0,0,1,.3-.08.63.63,0,0,1,.29.07s3.53,2.3,4.06,2.5a2.78,2.78,0,0,0,1.21.25,2.7,2.7,0,0,0,1.35-.33c.53-.28,3.9-2.41,3.93-2.41a.53.53,0,0,1,.28-.08.59.59,0,0,1,.3.08c.46.25,3.58,2.16,3.71,2.25a.72.72,0,0,1,.26.27l-7.26,4h-.11v.06l-.68.38v-.44h-.84v.51a1.53,1.53,0,0,0-1.22-.59,1.77,1.77,0,0,0-1.36.63l-2.28-1.25v-.68h-.9v.18l-5-2.76A.74.74,0,0,1,246.73,252.33ZM255.91,266a.83.83,0,0,0,.29.05h0v.05a.8.8,0,0,1-.32-.1Z" transform="translate(-243.97 -245.2)"/></svg>