<svg id="Layer_1" data-name="Layer 1" xmlns="http://www.w3.org/2000/svg" viewBox="0 0 24.6 24.6"><defs><style>.cls-1{fill:#7b6648;}</style></defs><title>Line</title><path class="cls-1" d="M254.53,254.83h-.63a.19.19,0,0,0-.18.19v3.9a.17.17,0,0,0,.18.16h.63a.16.16,0,0,0,.17-.16V255a.19.19,0,0,0-.17-.19" transform="translate(-244.09 -245.2)"/><path class="cls-1" d="M253,258.11h-1.7V255a.19.19,0,0,0-.18-.19h-.63a.19.19,0,0,0-.17.19v3.9a.21.21,0,0,0,.05.12h0a.25.25,0,0,0,.12,0H253a.16.16,0,0,0,.17-.16v-.63a.17.17,0,0,0-.17-.17" transform="translate(-244.09 -245.2)"/><path class="cls-1" d="M258.85,254.83h-.63a.19.19,0,0,0-.18.19v2.31l-1.78-2.41v0h-.76a.18.18,0,0,0-.17.19v3.9a.16.16,0,0,0,.17.16h.63a.16.16,0,0,0,.18-.16V256.6l1.79,2.42,0,0h.72a.17.17,0,0,0,.18-.16V255a.19.19,0,0,0-.18-.19" transform="translate(-244.09 -245.2)"/><path class="cls-1" d="M263.36,245.2H249.42a5.33,5.33,0,0,0-5.33,5.32v13.94a5.33,5.33,0,0,0,5.33,5.33h13.94a5.33,5.33,0,0,0,5.33-5.33V250.52a5.33,5.33,0,0,0-5.33-5.32m0,15.69a28.53,28.53,0,0,1-7,5.18c-1,.41-.82-.26-.77-.47s.13-.77.13-.77a1.94,1.94,0,0,0,0-.82c-.1-.25-.49-.38-.79-.43-4.3-.57-7.49-3.59-7.49-7.18,0-4,4-7.26,9-7.26s9,3.25,9,7.26a6.47,6.47,0,0,1-1.92,4.48" transform="translate(-244.09 -245.2)"/><path class="cls-1" d="M262.32,254.83h-2.5a.15.15,0,0,0-.12.06h0a.14.14,0,0,0,0,.12v3.9a.19.19,0,0,0,.05.12h0a.21.21,0,0,0,.12,0h2.5a.16.16,0,0,0,.18-.16v-.63a.17.17,0,0,0-.18-.17h-1.7v-.66h1.7a.17.17,0,0,0,.18-.19v-.63a.17.17,0,0,0-.18-.16h-1.7v-.66h1.7a.18.18,0,0,0,.18-.18V255a.18.18,0,0,0-.18-.19" transform="translate(-244.09 -245.2)"/></svg>