<svg id="Layer_1" data-name="Layer 1" xmlns="http://www.w3.org/2000/svg" viewBox="0 0 29.88 29.88"><defs><style>.cls-1{fill:#f2d1c1;}</style></defs><title>Line 2</title><path class="cls-1" d="M226.36,225.91h-.76a.23.23,0,0,0-.22.23v4.74a.2.2,0,0,0,.22.19h.76a.2.2,0,0,0,.21-.19v-4.74a.22.22,0,0,0-.21-.23" transform="translate(-213.68 -214.21)"/><path class="cls-1" d="M224.52,229.89h-2.07v-3.76a.23.23,0,0,0-.21-.23h-.76a.23.23,0,0,0-.21.23v4.74a.25.25,0,0,0,.06.15h0a.31.31,0,0,0,.15,0h3a.2.2,0,0,0,.21-.19v-.77a.2.2,0,0,0-.21-.21" transform="translate(-213.68 -214.21)"/><path class="cls-1" d="M231.61,225.91h-.76a.23.23,0,0,0-.22.23v2.81L228.46,226l0,0h0v0h-.9a.22.22,0,0,0-.21.23v4.74a.2.2,0,0,0,.21.19h.76a.2.2,0,0,0,.21-.19v-2.82l2.18,2.94.05.05h.88a.2.2,0,0,0,.21-.19v-4.74a.23.23,0,0,0-.21-.23" transform="translate(-213.68 -214.21)"/><path class="cls-1" d="M237.09,214.21H220.16a6.48,6.48,0,0,0-6.48,6.47V237.6a6.48,6.48,0,0,0,6.48,6.48h16.93a6.48,6.48,0,0,0,6.47-6.48V220.67a6.48,6.48,0,0,0-6.47-6.47m0,19.06a34.66,34.66,0,0,1-8.55,6.3c-1.16.49-1-.31-.94-.57s.16-.93.16-.93a2.35,2.35,0,0,0,0-1c-.12-.31-.6-.46-1-.52-5.23-.7-9.1-4.36-9.1-8.72,0-4.87,4.88-8.82,10.88-8.82s10.87,4,10.87,8.82a7.86,7.86,0,0,1-2.33,5.44" transform="translate(-213.68 -214.21)"/><path class="cls-1" d="M235.82,225.91h-3a.18.18,0,0,0-.15.07h0a.17.17,0,0,0-.06.15v4.74a.23.23,0,0,0,.06.15h0a.26.26,0,0,0,.15,0h3a.2.2,0,0,0,.21-.19v-.77a.2.2,0,0,0-.21-.21h-2.07v-.8h2.07a.21.21,0,0,0,.21-.23v-.76a.2.2,0,0,0-.21-.2h-2.07v-.8h2.07a.22.22,0,0,0,.21-.22v-.76a.22.22,0,0,0-.21-.23" transform="translate(-213.68 -214.21)"/></svg>