<svg id="Layer_1" data-name="Layer 1" xmlns="http://www.w3.org/2000/svg" viewBox="0 0 87.65 17.4"><defs><style>.cls-1{fill:#7b6648;}</style></defs><title>Logo FARI</title><polygon class="cls-1" points="0 0 11.71 0 11.71 2.74 3.35 2.74 3.35 7.46 10.58 7.46 10.58 10.12 3.35 10.12 3.35 17.26 0 17.26 0 0"/><path class="cls-1" d="M242.81,247.5h3.49l6.45,17.25h-3.51l-1.31-3.85H241l-.32,1-.34,1-.35,1-.33.94h-3.43Zm-1,10.87h5.28l-2.58-7.68Z" transform="translate(-212.72 -247.5)"/><path class="cls-1" d="M267.11,247.5H276a5.53,5.53,0,0,1,2.16.39,4.54,4.54,0,0,1,1.57,1.05,4.43,4.43,0,0,1,1,1.54,5.28,5.28,0,0,1,.33,1.85,5.61,5.61,0,0,1-.18,1.45,4.4,4.4,0,0,1-.55,1.25,4.33,4.33,0,0,1-.9,1,4.88,4.88,0,0,1-1.25.74,3.43,3.43,0,0,1,1.17.56,3.32,3.32,0,0,1,.82.88,4,4,0,0,1,.49,1.13,6,6,0,0,1,.19,1.31q0,.62.06,1.22T281,263a6.84,6.84,0,0,0,.21,1,2.76,2.76,0,0,0,.36.78h-3.39a5.38,5.38,0,0,1-.27-1c-.06-.34-.1-.69-.13-1s-.06-.7-.08-1-.06-.7-.11-1a5.22,5.22,0,0,0-.31-1.17,2.47,2.47,0,0,0-.57-.86,2.26,2.26,0,0,0-.9-.52,4.36,4.36,0,0,0-1.31-.17h-4v6.84h-3.35Zm3.35,8.09h4.38a3.51,3.51,0,0,0,1.22-.2,2.37,2.37,0,0,0,.89-.56,2.42,2.42,0,0,0,.55-.89,3.51,3.51,0,0,0,.19-1.18,3.29,3.29,0,0,0-.19-1.14,2.35,2.35,0,0,0-.55-.87,2.45,2.45,0,0,0-.89-.56,3.55,3.55,0,0,0-1.22-.2h-4.38Z" transform="translate(-212.72 -247.5)"/><rect class="cls-1" x="84.29" width="3.36" height="17.25"/></svg>