<svg id="Layer_1" data-name="Layer 1" xmlns="http://www.w3.org/2000/svg" viewBox="0 0 121.5 121.34"><defs><style>.cls-1{fill:#b55366;}.cls-2{fill:#fff;}</style></defs><title>Promotion 3</title><path class="cls-1" d="M478.33,285.83a8.56,8.56,0,0,1-1.92-2.43,10.67,10.67,0,0,1-1.32-4.91,7.91,7.91,0,0,1,.55-3.25,4,4,0,0,0,.32-1.18,8.2,8.2,0,0,0,.11-1.65,7.18,7.18,0,0,0-2-4.4,6.72,6.72,0,0,0-2.28-1.48,5.1,5.1,0,0,1-1-.35,21.61,21.61,0,0,1-2.06-1.56,10.6,10.6,0,0,1-2.78-4.14,14.69,14.69,0,0,1-.6-3.93,11.18,11.18,0,0,0-.46-1.85.9.9,0,0,0-.67-.6,7.43,7.43,0,0,1-1.69-1,1.3,1.3,0,0,1-.54-1.28.56.56,0,0,0-.38-.6,6.44,6.44,0,0,0-2.54-.67,12,12,0,0,1-2-.2,9.63,9.63,0,0,1-4.42-2.17,9.12,9.12,0,0,1-2.28-2.67,16.56,16.56,0,0,1-.85-2,5.69,5.69,0,0,0-1.25-1.83,6.92,6.92,0,0,0-2.42-1.67,6,6,0,0,0-1.85-.47,11.56,11.56,0,0,0-2.07.13,3.37,3.37,0,0,0-1,.22,6.86,6.86,0,0,1-3.46.47,10.23,10.23,0,0,1-4.61-1.43,9.19,9.19,0,0,1-2.19-1.8,7.2,7.2,0,0,0-4.79-2.61,6.51,6.51,0,0,0-4.51,1.13l-1.1.7c-.12.29-.52.47-.91.66-.09,0-.2.06-.29.11a7.9,7.9,0,0,1-2.36.77,11.44,11.44,0,0,1-2.47.17,7.42,7.42,0,0,1-2.44-.41c-.52-.19-.8-.15-1.12.33a.89.89,0,0,1-1,.36.82.82,0,0,1-.57-1.19c.27-.42.1-.7-.31-.84a6.7,6.7,0,0,0-1.51-.37,7,7,0,0,0-4.24.9,6.18,6.18,0,0,0-1.55,1.19c-.61.7-1.08,1.51-1.62,2.27a7.4,7.4,0,0,1-2.06,1.88,10.49,10.49,0,0,1-4.74,1.71,12.52,12.52,0,0,1-2-.05,16.47,16.47,0,0,0-1.69-.18,6.93,6.93,0,0,0-4.06,1.38,7.32,7.32,0,0,0-2.68,4.07c-.13.49-.28,1-.37,1.46a5.59,5.59,0,0,1-1,2.08,9.24,9.24,0,0,1-1.32,1.58,9.62,9.62,0,0,1-3.36,2.2,15.8,15.8,0,0,1-1.85.48,7,7,0,0,0-3.3,1.65,8.47,8.47,0,0,0-1.19,1.48,5.89,5.89,0,0,0-.9,2.13c0,.14-.06.27-.1.4a5.65,5.65,0,0,0,0,2.11c0,.37.14.41.53.37h.26a1.61,1.61,0,0,1-.22.19c-.53.26-.56.28-.47.82a2.6,2.6,0,0,1-.08,1c0,.2,0,.41-.06.62a8.61,8.61,0,0,1-.18,1.43,5.87,5.87,0,0,1-.58,1.14c-.11.2-.24.38-.35.57a9.06,9.06,0,0,1-1.59,2.27,8.5,8.5,0,0,1-1.73,1.39,7.16,7.16,0,0,0-2.44,2.13,5.38,5.38,0,0,0-.87,1.33,6.13,6.13,0,0,0-.49,2.72,8.87,8.87,0,0,0,.91,3.32,7.48,7.48,0,0,1,.86,2.17,15.65,15.65,0,0,1,.32,2.15,12.42,12.42,0,0,1-.12,1.54,9.07,9.07,0,0,1-.88,3.13,5.57,5.57,0,0,1-.67,1.15,2.68,2.68,0,0,0-.52,1.28.6.6,0,0,0,.33.69c.29.16.55.36.83.54a1,1,0,0,1,.22,1.52,2,2,0,0,1-2.41.61.4.4,0,0,0-.65.33,2.86,2.86,0,0,0,0,.72,6.83,6.83,0,0,0,2.4,4.79,9.08,9.08,0,0,1,2.67,4.06,9.56,9.56,0,0,1,.53,3.72,7.8,7.8,0,0,1-.11,1.23c-.2.91-.45,1.82-.69,2.72a3.76,3.76,0,0,0-.17,1.48,6.63,6.63,0,0,0,.79,2.87,16.46,16.46,0,0,0,1.07,1.52c.29.35.47.33.76,0a1.62,1.62,0,0,1,1-.57,5.13,5.13,0,0,1,1.8-.06,6.2,6.2,0,0,1,.6.15,3,3,0,0,1-.8.92c-.29.19-.59.36-.88.55s-.3.4,0,.63a1,1,0,0,0,.35.22c.46.15.77.6,1.29.61,0,0,.06,0,.08.06.55.47,1.13.92,1.65,1.41a9.85,9.85,0,0,1,1.92,2.63,9,9,0,0,1,1,3.88c0,.55.06,1.1.14,1.65a6.7,6.7,0,0,0,1.48,3.16,6,6,0,0,0,2.78,2,4,4,0,0,0,1.7.4,3.47,3.47,0,0,1,.72.1,2.81,2.81,0,0,0,.41,0,5.25,5.25,0,0,1,2.19.35,13.84,13.84,0,0,1,2.71,1.4A10.59,10.59,0,0,1,389,344c.26.36.48.62,1,.47,0,0,.06,0,.1,0a.59.59,0,0,1,.11.72,1.23,1.23,0,0,0,0,.86,7.2,7.2,0,0,0,1.52,2.57,6.94,6.94,0,0,0,3.37,1.94,6.51,6.51,0,0,0,3.73-.16,10.85,10.85,0,0,1,3.52-.51,10.09,10.09,0,0,1,3.57.82c.39.15.71.42,1.08.58a5,5,0,0,1,1.37.92,17.87,17.87,0,0,1,1.33,1.37,7.24,7.24,0,0,0,4.17,2.13,5.45,5.45,0,0,0,2.41-.08l1.55-.39.47-.35a5.35,5.35,0,0,0,.67-.48,8.18,8.18,0,0,1,3.2-1.73,10.84,10.84,0,0,1,5.47-.19,7.55,7.55,0,0,1,2.45,1,6.81,6.81,0,0,0,1.77.69,5.51,5.51,0,0,0,3,.07l1.58-.4c.09-.08.2-.19.33-.28.46-.34,1-.63,1.37-1a2.58,2.58,0,0,0,1.09-1.62,9.93,9.93,0,0,0,.83-.84,8.43,8.43,0,0,1,1.79-1.7,10.93,10.93,0,0,1,3.35-1.6,10,10,0,0,1,4.45-.21,5.11,5.11,0,0,0,1.91,0c.74-.16,1.47-.37,2.11-.53a6.05,6.05,0,0,1,.59-.48,6.38,6.38,0,0,0,2.43-2.69,4.81,4.81,0,0,0,.67-2.22,1,1,0,0,1,.11-.4c.22-.5.46-1,.67-1.51a8.43,8.43,0,0,1,2.13-2.84,9.4,9.4,0,0,1,4.83-2.48,7.07,7.07,0,0,0,4.43-2.75,7.37,7.37,0,0,0,1.09-2.11,5.77,5.77,0,0,0,.15-2.81,10.26,10.26,0,0,1,.07-3.55,1.48,1.48,0,0,0-.07-.65c-.11-.37-.1-.63.17-.79a2.52,2.52,0,0,0,.9-1.17,9.07,9.07,0,0,1,2.52-3.1,17.8,17.8,0,0,1,1.67-1.14,1.26,1.26,0,0,0,.66-.94c0-.12.06-.23.08-.35a.56.56,0,0,1,.53-.48,1.24,1.24,0,0,0,1-.81,6.44,6.44,0,0,0,.63-3.76,7.75,7.75,0,0,0-.49-1.8c-.22-.46-.37-1-.63-1.41a8.08,8.08,0,0,1-.83-3.18,10.14,10.14,0,0,1,.24-3.24,9.39,9.39,0,0,1,.58-1.65,10,10,0,0,1,1.6-2.52,6.19,6.19,0,0,0,1.14-2.24,6.81,6.81,0,0,0,.26-2A6.58,6.58,0,0,0,478.33,285.83ZM363.51,295.9c.43,0,.43,0,.48.37C363.68,296.29,363.55,296.16,363.51,295.9Zm109.45-14c.09.28.12.47-.17.63l-.22-.48Zm-2.23-15.14c.19.09.18.21.06.36-.22,0-.3-.11-.23-.3A.18.18,0,0,1,470.73,266.74Zm-104.35,9.44c.23,0,.36.23.39.62a.76.76,0,0,1-1-.16A.59.59,0,0,1,366.38,276.19Zm44,74.22c-.18-.12-.12-.29.07-.45l.55.33A.42.42,0,0,1,410.41,350.41Zm41.39-10c-.17-.21-.41-.4-.33-.74.48-.11.72,0,.79.3S452.2,340.41,451.8,340.46Zm2.24-.66c.24-.14.41-.06.63.17C454.26,340,454.26,340,454,339.8Zm19.45-42.89a12.74,12.74,0,0,0-.08,1.65c.06.82-.2,1.61-.22,2.42a37.5,37.5,0,0,1-.59,4.1,39,39,0,0,1-1.26,5.31,14.47,14.47,0,0,1-1.06,3,2.05,2.05,0,0,0-.18.54,6.31,6.31,0,0,1-.89,2.09,1,1,0,0,0-.13.34,4.69,4.69,0,0,1-.54,1.34c-.17.3-.26.64-.41.95s-.22.38-.33.58l-1.06,1.95c-.31.56-.24.8.39,1.16l-.1.6a3.21,3.21,0,0,0-2.29,1.55c-.35.57-.75,1.1-1.14,1.65s-.77,1.1-1.18,1.63c-.76,1-1.54,1.94-2.35,3,0,0,0,.12,0,.2.08.48,0,.63-.53.64a.74.74,0,0,0-.57.28q-1.14,1.16-2.33,2.28c-.71.66-1.43,1.31-2.16,1.94a42.26,42.26,0,0,1-3.91,3c-1.07.73-2.14,1.47-3.24,2.15-.79.49-1.62.92-2.46,1.34-.65.33-.77.46-.72,1.21a2.81,2.81,0,0,1-.36,1.75,1,1,0,0,1-1.27.55,3.1,3.1,0,0,1-1.9-1,.82.82,0,0,0-1-.15c-.84.31-1.68.64-2.54.92-1.17.38-2.33.8-3.52,1.08a55.78,55.78,0,0,1-5.68,1.15c-1.52.19-3,.38-4.58.52-.72.07-1.45,0-2.18.06a48.2,48.2,0,0,1-6.67-.25,31,31,0,0,1-5.77-1,4.44,4.44,0,0,0-.82-.09,3,3,0,0,1-.51-.07,11.89,11.89,0,0,1-2.12-.68,10.93,10.93,0,0,0-1.8-.51c-.48-.14-1-.31-1.42-.49-1-.4-2.1-.78-3.13-1.22s-2.1-1-3.15-1.48c-.67-.32-1.33-.66-2-1s-1-.6-1.5-.91c-.89-.56-1.8-1.1-2.66-1.69s-1.62-1.18-2.41-1.79a47.85,47.85,0,0,1-3.83-3.25q-1.4-1.33-2.73-2.75c-.71-.76-1.36-1.56-2-2.36a6.76,6.76,0,0,1-.45-.72c-.43-.19-.68-.69-1-1.11-.6-.78-1.19-1.58-1.71-2.41-.89-1.42-1.78-2.85-2.58-4.32s-1.5-2.93-2.16-4.43c-.56-1.28-1-2.61-1.49-3.93-.27-.77-.52-1.54-.73-2.33-.32-1.22-.6-2.45-.88-3.67-.15-.66-.29-1.31-.41-2s-.15-1.09-.22-1.64c-.09-.7-.2-1.4-.27-2.1s-.1-1.45-.15-2.17-.11-1.48-.13-2.21,0-1.65,0-2.48.05-1.72.09-2.58c0-.15.06-.31.07-.46,0-.6.09-1.2.11-1.8,0-.26-.11-.41-.4-.43-.64,0-.88-.36-.79-1a3.47,3.47,0,0,1,.14-.48l1.21.22a6.14,6.14,0,0,0,.43-1.73,9.23,9.23,0,0,1,.17-1.13q.59-2.4,1.22-4.79a7,7,0,0,1,.31-.82c.05-.13.12-.25.17-.38a22.77,22.77,0,0,1,.85-2.4,40.76,40.76,0,0,1,1.64-3.8c.37-.6.61-1.28.92-1.91.13-.26.29-.51.43-.77a9.27,9.27,0,0,0,.51-1,2.19,2.19,0,0,0,0-.65c.94-.27,1.1-1.26,1.63-1.93s1-1.44,1.52-2.16.84-1.18,1.29-1.75q1-1.21,2-2.37c.62-.7,1.25-1.39,1.91-2,.89-.87,1.81-1.71,2.73-2.55.47-.43,1-.83,1.45-1.24.32-.27.63-.54,1-.78a58.17,58.17,0,0,1,6.5-4.36c1-.55,2-1.09,3-1.58s2.23-1,3.37-1.44c1.63-.62,3.29-1.17,4.94-1.75a1.08,1.08,0,0,0,.24-.1,4.08,4.08,0,0,1,1.62-.46c.88-.16,1.75-.39,2.64-.54,1.27-.22,2.55-.42,3.83-.6.73-.11,1.48-.16,2.21-.25a1.79,1.79,0,0,0,.53-.21,1.16,1.16,0,0,1,1-.08,3.33,3.33,0,0,0,1.07.13c.89,0,1.79,0,2.68,0,.21,0,.41,0,.62,0,1.21.06,2.42.1,3.62.19.71.05,1.4.2,2.11.29s1.27.16,1.9.25,1.34.19,2,.35q2.15.51,4.28,1.09c.7.19,1.38.46,2.06.7,1,.35,2,.72,3,1a2.42,2.42,0,0,0,.91.07,2.42,2.42,0,0,1,2,.56.86.86,0,0,1,.26.31c.24.77.91,1,1.53,1.37l1.8,1,.78.42c.09,0,.19.08.28.14.9.6,1.82,1.18,2.71,1.81s1.83,1.36,2.73,2.05a34.93,34.93,0,0,1,3.66,3.21c1.15,1.17,2.27,2.37,3.39,3.57.44.47.86.95,1.25,1.45.65.84,1.26,1.71,1.91,2.55a41.88,41.88,0,0,1,3.5,5.52,44.06,44.06,0,0,1,2.39,5.06c.65,1.64,1.28,3.29,1.78,5q.61,2.06,1.09,4.16c.26,1.16.47,2.33.64,3.5s.27,2.35.39,3.53c.07.66.13,1.33.16,2s0,1.27,0,1.9c0,.22,0,.45,0,.67a2.54,2.54,0,0,1,0,.31C473.53,296.13,473.51,296.52,473.48,296.91Zm4.4-7.59c-.22-.21-.17-.39,0-.58C478.16,289.11,478.16,289.11,477.88,289.32Z" transform="translate(-359.23 -234.52)"/><path class="cls-1" d="M471.09,294.67c0-.16,0-.32,0-.48s0-.6,0-.9a50.72,50.72,0,0,0-.45-5.18c0-.19,0-.37-.07-.56-.14-.95-.32-1.89-.52-2.83v-.08c0-.11-.05-.22-.08-.33q-.4-1.84-.93-3.63l-.09-.31,0-.05-.09-.29a36.87,36.87,0,0,0-1.56-4.33l-.07-.16c-.12-.27-.21-.55-.34-.82l-.22-.44q-.81-1.8-1.75-3.54l-.17-.35c-.22-.43-.49-.84-.73-1.26l-.07-.12q-1.15-2-2.47-3.79c-.37-.5-.73-1-1.12-1.5-.68-.86-1.37-1.71-2.11-2.51L458,261c-.13-.13-.24-.28-.37-.41l0,0q-1-1-2-2a4.75,4.75,0,0,0-.38-.43,1,1,0,0,0-.28-.22c-.32-.3-.65-.59-1-.88a1.37,1.37,0,0,0-.2-.19c-.09-.08-.16-.19-.25-.26l-.5-.38a50.76,50.76,0,0,0-8.5-5.84,11.42,11.42,0,0,0-1.09-.56q-2-1.05-4.21-1.93l-.19-.1a16.92,16.92,0,0,0-1.79-.69c-1.38-.46-2.75-.94-4.17-1.27s-2.71-.72-4.1-.93c-.43-.06-.85-.17-1.28-.22l-1.73-.18c-.53-.06-1.06-.12-1.58-.17h0c-.43,0-.86-.07-1.29-.09H423l-1-.05c-.34,0-.67,0-1-.06l-.6,0a51,51,0,0,0-22.76,5.16c-.4.19-.79.39-1.18.59l-1,.53-.22.12-.2.12q-1.11.62-2.19,1.3l-.13.08q-1.11.7-2.19,1.46l-.13.09-.11.08q-1.51,1.07-2.93,2.26c-.11.09-.23.17-.34.26l-.31.29a50.82,50.82,0,0,0-14.23,19.95l-.18.36a1.08,1.08,0,0,0-.14.45c-.36,1-.71,1.95-1,2.95-.16.46-.32.92-.44,1.39q-.36,1.43-.67,2.88-.18.82-.33,1.64l0,.09,0,.12c-.1.57-.21,1.14-.29,1.7,0,.16-.05.32-.09.47a2.41,2.41,0,0,0,0,.47s0,0,0,0a50.82,50.82,0,0,0,2.53,23.33l.07.22c.25.75.55,1.48.86,2.2l.1.24.27.64c.06.15.14.29.2.43q.39.89.82,1.76c.09.18.16.36.25.54l.4.76.13.24c.34.65.71,1.3,1.09,1.93l.19.31c.14.23.27.47.42.69.26.38.5.77.74,1.16l0,.06c.18.28.35.56.54.82l.33.43q1.09,1.55,2.29,3l.14.19c.1.13.22.24.33.37q.88,1,1.82,2c.16.17.31.36.47.53,1.09,1.12,2.23,2.2,3.43,3.21l.67.57.29.25.52.4c.46.37.93.73,1.41,1.08l.57.44c.17.12.35.23.52.35.51.36,1,.7,1.56,1l.07,0,.26.17.66.42c.55.35,1.1.7,1.67,1,.81.44,1.63.85,2.46,1.26l.45.22.69.34c.74.36,1.49.72,2.26,1,.5.19,1,.37,1.51.54.7.26,1.4.49,2.12.72s1.69.6,2.55.85,1.76.39,2.64.57l.87.16c.6.11,1.19.22,1.79.31s1.4.19,2.11.28c.45.06.89.13,1.34.16.76,0,1.52.06,2.28.08l1,0c.66,0,1.31,0,2,0,1.17,0,2.35-.09,3.52-.17a2.74,2.74,0,0,0,.83-.12l1.14-.14s.08,0,.14,0c.65-.08,1.31-.12,2-.26l1.35-.31c1-.21,2.08-.45,3.1-.72l1.19-.28a22.55,22.55,0,0,0,3.12-1c1-.41,2-.71,3-1.21s2.13-.92,3.14-1.48c.68-.38,1.34-.77,2-1.17l1.21-.72,2-1.24a14,14,0,0,0,1.18-.83c.68-.51,1.35-1,2-1.56s1.48-1.15,2.15-1.79c.35-.33.68-.68,1-1q1-1,2-2l.54-.54c.48-.5.92-1,1.37-1.58l.22-.26.27-.32c.16-.2.31-.42.48-.62q.67-.84,1.31-1.71l.29-.38a17.55,17.55,0,0,0,1.35-2c.08-.15.17-.3.26-.45q1.17-1.85,2.18-3.81l.3-.54s0-.06,0-.09c.29-.57.56-1.15.82-1.74a1,1,0,0,0,.31-.48q.39-1,.76-2c.06-.17.12-.35.18-.53q.22-.59.43-1.19a8.87,8.87,0,0,0,.62-1.8c0-.17.16-.32.18-.48.05-.33.15-.65.22-1s.22-.76.32-1.14.15-.67.23-1a1.2,1.2,0,0,0,.07-.16c.22-.87.39-1.76.58-2.64,0-.08,0-.17,0-.26,0-.39.09-.79.15-1.18,0-.24.11-.47.14-.71.12-1.13.27-2.26.33-3.4,0-.33,0-.66,0-1C471.09,296.52,471.1,295.6,471.09,294.67Z" transform="translate(-359.23 -234.52)"/><path class="cls-2" d="M391.77,300a4.12,4.12,0,0,1-.28-3.21l2-8a6.3,6.3,0,0,1,1.39-2.77,15,15,0,0,1,2.48-2.1,11.63,11.63,0,0,0,1.31-1,1.86,1.86,0,0,0,.59-.93q.38-1.51-1.64-2a7.38,7.38,0,0,0-4.08.14l1-4.09a10.38,10.38,0,0,1,3.06-.38,14.3,14.3,0,0,1,3.36.44,7.59,7.59,0,0,1,4.12,2.25,4,4,0,0,1,.68,3.73,5,5,0,0,1-1.07,2.12,19.57,19.57,0,0,1-2.08,1.94,20.32,20.32,0,0,0-2.14,2,5.26,5.26,0,0,0-1.09,2.21l-1.62,6.38a1.23,1.23,0,0,0,1,1.7l1.4.36-1.06,4.17-4.57-1.16A4.29,4.29,0,0,1,391.77,300Z" transform="translate(-359.23 -234.52)"/><path class="cls-2" d="M406.79,283.7l5.93,1.51-1.45,5.71L415.4,292a3,3,0,0,0,2.41-.15,3.37,3.37,0,0,0,1.21-2.07l.7-2.76,6,1.52-.74,2.91q-1,3.87-3.89,4.35a3.94,3.94,0,0,1,1.48,2.2,6.13,6.13,0,0,1-.12,2.93l-1.9,7.48-6-1.52,1.71-6.71a3.41,3.41,0,0,0,0-2.44,3.13,3.13,0,0,0-2.08-1.24l-4-1-2.46,9.66-5.93-1.51Z" transform="translate(-359.23 -234.52)"/><path class="cls-2" d="M430,309l-.66,1.68-5.49-1.4,5.07-19.9,5.94,1.51-3.58,14.08a5.72,5.72,0,0,0,1.53,1.71,5.94,5.94,0,0,0,2.2,1.09,3.25,3.25,0,0,0,2.54-.18,3.55,3.55,0,0,0,1.38-2.28l3.2-12.57,6,1.52-3.33,13.08a7.42,7.42,0,0,1-3.23,4.81,7.05,7.05,0,0,1-5.57.6A10.54,10.54,0,0,1,430,309Z" transform="translate(-359.23 -234.52)"/><path class="cls-2" d="M444.34,284.5l5.94,1.51-1.57,6.16-5.93-1.51Z" transform="translate(-359.23 -234.52)"/></svg>