<svg id="Layer_1" data-name="Layer 1" xmlns="http://www.w3.org/2000/svg" viewBox="0 0 24.9 24.6"><defs><style>.cls-1{fill:#7b6648;fill-rule:evenodd;}</style></defs><title>shopee</title><path class="cls-1" d="M256,258.86c-1.25-.43-1.83-1-1.82-1.77a1.76,1.76,0,0,1,1.9-1.5,4.21,4.21,0,0,1,2.31.72c.09.05.14,0,.19,0l.15-.24h0l.16-.26a.14.14,0,0,0-.05-.21,5.33,5.33,0,0,0-.78-.43,5.13,5.13,0,0,0-2-.41,2.65,2.65,0,0,0-2.81,2.26,2.36,2.36,0,0,0,1.37,2.26,17,17,0,0,0,1.79.72c1.43.45,2.17,1.26,2,2.19s-1,1.4-2.27,1.42a4.36,4.36,0,0,1-2.51-1l-.06,0,0,0h0a.13.13,0,0,0-.21,0l-.19.28-.18.26c0,.07,0,.11,0,.17a5.6,5.6,0,0,0,.9.62,5.33,5.33,0,0,0,2.26.58,3.87,3.87,0,0,0,1.65-.28,2.5,2.5,0,0,0,1.55-2C259.55,260.63,258.58,259.67,256,258.86Z" transform="translate(-243.78 -245.2)"/><path class="cls-1" d="M256.23,248.81a3.39,3.39,0,0,0-3.06,3.53h6.13A3.39,3.39,0,0,0,256.23,248.81Z" transform="translate(-243.78 -245.2)"/><path class="cls-1" d="M264.82,245.2H247.64a3.86,3.86,0,0,0-3.86,3.86v16.88a3.86,3.86,0,0,0,3.86,3.86h17.18a3.86,3.86,0,0,0,3.86-3.86V249.06A3.86,3.86,0,0,0,264.82,245.2Zm0,7.53-.62,12.55s0,0,0,.07v0h0a1.74,1.74,0,0,1-1.66,1.61H249.82a1.69,1.69,0,0,1-1.58-1.6h0v0s0-.08,0-.11l-.57-12.5h0v0a.37.37,0,0,1,.36-.37h4c.1-2.59,1.95-4.66,4.22-4.66s4.12,2.07,4.22,4.66h4a.37.37,0,0,1,.37.37v0Z" transform="translate(-243.78 -245.2)"/></svg>