<svg id="Layer_1" data-name="Layer 1" xmlns="http://www.w3.org/2000/svg" viewBox="0 0 30.25 29.88"><defs><style>.cls-1{fill:#b55366;fill-rule:evenodd;}</style></defs><title>Shopee 1</title><path class="cls-1" d="M228.26,231c-1.52-.52-2.22-1.21-2.21-2.15a2.14,2.14,0,0,1,2.3-1.83,5.11,5.11,0,0,1,2.81.87c.1.07.17.06.23,0l.18-.29h0l.19-.31a.17.17,0,0,0-.06-.25,6.48,6.48,0,0,0-.95-.52,6.23,6.23,0,0,0-2.43-.5,3.22,3.22,0,0,0-3.42,2.75,2.86,2.86,0,0,0,1.67,2.75,20.62,20.62,0,0,0,2.18.87c1.74.55,2.63,1.53,2.42,2.66s-1.27,1.7-2.76,1.72a5.3,5.3,0,0,1-3-1.17l-.07-.05-.05,0h0a.16.16,0,0,0-.25,0l-.23.34-.22.32c-.06.08,0,.13,0,.2a6.8,6.8,0,0,0,1.1.76,6.47,6.47,0,0,0,2.74.71,4.7,4.7,0,0,0,2-.35A3,3,0,0,0,232.3,235C232.53,233.16,231.35,232,228.26,231Z" transform="translate(-213.37 -214.42)"/><path class="cls-1" d="M228.49,218.8c-2,0-3.65,1.91-3.72,4.29h7.44C232.14,220.71,230.5,218.8,228.49,218.8Z" transform="translate(-213.37 -214.42)"/><path class="cls-1" d="M238.93,214.42H218.06a4.69,4.69,0,0,0-4.69,4.69v20.5a4.69,4.69,0,0,0,4.69,4.69h20.87a4.69,4.69,0,0,0,4.69-4.69v-20.5A4.69,4.69,0,0,0,238.93,214.42Zm0,9.15-.75,15.24s0,.05,0,.08v0h0a2.11,2.11,0,0,1-2,2H220.71A2.06,2.06,0,0,1,218.8,239h0v-.05c0-.05,0-.1,0-.14l-.69-15.18h0s0,0,0,0a.45.45,0,0,1,.44-.45h4.83c.12-3.15,2.37-5.66,5.12-5.66s5,2.51,5.12,5.66h4.83a.45.45,0,0,1,.45.45v0Z" transform="translate(-213.37 -214.42)"/></svg>