<?xml version="1.0" encoding="utf-8"?>
<!-- Generator: Adobe Illustrator 21.0.2, SVG Export Plug-In . SVG Version: 6.00 Build 0)  -->
<svg version="1.1" id="Layer_1" xmlns="http://www.w3.org/2000/svg" xmlns:xlink="http://www.w3.org/1999/xlink" x="0px" y="0px"
	 viewBox="0 0 182.4 23.6" style="enable-background:new 0 0 182.4 23.6;" xml:space="preserve">
<style type="text/css">
	.st0{fill:#7B6648;}
</style>
<title>Tel</title>
<g>
	<path class="st0" d="M3.4,22.2c-1.2-1.1-2.1-2.5-2.6-4c-0.6-2-0.9-4-0.9-6.1c0-2,0.3-4.1,0.9-6c0.5-1.5,1.4-2.9,2.6-3.9
		c1.1-0.9,2.5-1.4,4-1.4c1.4,0,2.8,0.5,3.9,1.4c1.2,1.1,2,2.5,2.5,4c0.6,2,0.9,4,0.9,6.1c0,2-0.3,4.1-0.9,6
		c-0.5,1.5-1.4,2.9-2.6,3.9c-1.1,0.9-2.5,1.4-3.9,1.4C5.9,23.6,4.5,23.2,3.4,22.2z M10.3,20.5c0.6-2.5,0.9-5.1,0.8-7.8
		c0-3.9-0.3-6.7-1-8.5c-0.7-1.8-1.7-2.7-3-2.7c-1.2,0-2.1,0.9-2.6,2.6c-0.7,2.6-1,5.2-0.9,7.9c-0.1,2.8,0.2,5.6,1,8.3
		C5.3,22.1,6.4,23,7.8,23C9,22.9,9.8,22.1,10.3,20.5L10.3,20.5z"/>
	<path class="st0" d="M30.9,13.5c0.9,1.1,1.3,2.5,1.3,3.9c0,1.2-0.3,2.3-1,3.2c-0.7,1-1.6,1.7-2.7,2.2c-1.2,0.5-2.5,0.8-3.8,0.8
		c-1.3,0-2.6-0.2-3.9-0.8c-1-0.5-1.9-1.3-2.5-2.2c-0.6-0.9-0.9-2-0.9-3.1c0-1.4,0.4-2.8,1.3-3.9c0.9-1.1,2-2.1,3.3-2.7
		c-0.8-0.6-1.5-1.3-2-2.1c-0.5-0.8-0.7-1.8-0.7-2.8c0-1,0.2-2,0.8-2.8c0.5-0.8,1.3-1.3,2.1-1.7c0.9-0.4,1.8-0.6,2.8-0.6
		c1.4-0.1,2.7,0.4,3.8,1.2c1,0.8,1.5,2,1.5,3.2c0,1-0.3,2-0.8,2.8C29,9,28.2,9.8,27.4,10.5C28.7,11.3,29.9,12.3,30.9,13.5z
		 M28.2,21.7c0.6-0.9,1-1.9,0.9-3c0-1-0.2-2-0.7-2.8c-0.4-0.7-1-1.4-1.7-1.9c-0.9-0.7-1.8-1.3-2.7-1.8c-0.6-0.3-1-0.6-1.2-0.8
		c-1.3,1.4-2,3.3-1.9,5.3c-0.1,1.6,0.4,3.2,1.2,4.5c0.8,1.1,2,1.7,3.3,1.7C26.6,23,27.6,22.5,28.2,21.7z M22.7,2.3
		c-0.4,0.6-0.6,1.3-0.6,2c0,1.1,0.4,2.2,1.1,3.1c1,1,2.1,1.9,3.3,2.5c0.6-1.3,0.9-2.8,0.9-4.2c0.1-1.1-0.2-2.2-0.8-3.1
		c-0.5-0.7-1.3-1-2.1-1C23.9,1.6,23.2,1.8,22.7,2.3z"/>
	<path class="st0" d="M48.2,16.2c0,0.5,0,0.7-0.1,0.7l-2.4-0.1v3.5c0,0.5,0,1,0.2,1.6c0.1,0.3,0.3,0.6,0.6,0.7
		c0.5,0.1,1,0.2,1.5,0.2c0,0,0.1,0.1,0.1,0.2s0,0.2-0.1,0.2c-0.7,0-1.2,0-1.6,0H44h-2.7c-0.5,0-1.1,0-2,0c-1.3,0-0.1-0.1-0.1-0.2
		s0-0.2,0.1-0.2c0.7,0,1.4,0,2.1-0.2c0.4-0.1,0.7-0.3,0.8-0.6c0.2-0.5,0.2-1.1,0.2-1.6v-3.5c-3,0-5.8-0.1-8.3-0.1
		c-0.1,0-0.2,0-0.3-0.1c-0.1-0.1-0.1-0.2,0-0.3L45.1,1.1c0.1-0.1,0.1-0.1,0.2-0.1c0.1,0,0.1,0,0.2,0c0.1,0,0.1,0.1,0.1,0.2v14.3
		c0.5,0,1.3,0,2.4-0.1C48.1,15.5,48.2,15.7,48.2,16.2z M42.5,15.7V6.2l-6.6,9.2c-0.1,0.2-0.1,0.2,0.2,0.2
		C39.1,15.7,41.3,15.7,42.5,15.7L42.5,15.7z"/>
	<path class="st0" d="M59.1,22.8c-0.1-0.2-0.1-0.4,0-0.5l1.1-1.3c2-2.5,3.5-4.5,4.5-5.8c0.9-1.3,1.7-2.6,2.3-4
		c0.6-1.2,0.9-2.6,0.9-3.9c0.1-1.2-0.3-2.4-1-3.3c-0.7-0.7-1.7-1.1-2.8-1c-1,0-2,0.3-2.8,0.9c-0.8,0.6-1.3,1.5-1.5,2.5
		c0,0,0,0-0.1,0s-0.3,0-0.2-0.1c0.2-1.5,1-2.8,2.1-3.8c1.2-1,2.7-1.5,4.2-1.4c2.7-0.3,5.2,1.8,5.5,4.5c0,0.3,0,0.6,0,0.8
		c0,1.3-0.3,2.6-0.9,3.8c-0.6,1.2-1.3,2.4-2.1,3.4c-0.8,1-1.9,2.2-3.2,3.7l-1.1,1.2c-0.5,0.6-1,1.2-1.5,1.8
		c-0.1,0.2-0.1,0.2,0.1,0.2c2.7,0,4.6-0.1,5.8-0.2c0.9,0,1.7-0.2,2.5-0.7c0.5-0.4,0.7-1,0.7-1.6c0-0.1,0.1-0.1,0.2-0.1
		c0.1,0,0.2,0,0.2,0.1v4.9c0,0.1,0,0.2-0.1,0.3c-0.1,0.1-0.1,0.1-0.2,0.1h-12C59.3,23.1,59.2,23,59.1,22.8z"/>
	<path class="st0" d="M88.4,16.2c0,0.5,0,0.7-0.1,0.7l-2.4-0.1v3.5c0,0.5,0,1,0.2,1.6c0.1,0.3,0.3,0.6,0.6,0.7
		c0.5,0.1,1,0.2,1.5,0.2c0,0,0.1,0.1,0.1,0.2s0,0.2-0.1,0.2c-0.7,0-1.2,0-1.6,0h-2.3h-2.7c-0.5,0-1.1,0-2,0c-1.3,0-0.1-0.1-0.1-0.2
		s0-0.2,0.1-0.2c0.7,0,1.4,0,2.1-0.2c0.4-0.1,0.7-0.3,0.8-0.6c0.2-0.5,0.2-1.1,0.2-1.6v-3.5c-3,0-5.8-0.1-8.3-0.1
		c-0.1,0-0.2,0-0.3-0.1c-0.1-0.1-0.1-0.2,0-0.3L85.3,1.1c0.1-0.1,0.1-0.1,0.2-0.1c0.1,0,0.1,0,0.2,0c0.1,0,0.1,0.1,0.1,0.2v14.3
		c0.5,0,1.3,0,2.4-0.1C88.4,15.5,88.4,15.7,88.4,16.2z M82.8,15.7V6.2l-6.6,9.2c-0.1,0.2-0.1,0.2,0.2,0.2
		C79.4,15.7,81.6,15.7,82.8,15.7L82.8,15.7z"/>
	<path class="st0" d="M104.3,14.4c0.8,0.9,1.2,2,1.2,3.1c0,1.1-0.4,2.1-1,3c-0.7,0.9-1.6,1.7-2.6,2.2c-1.1,0.5-2.4,0.8-3.6,0.8
		c-1.8,0.1-3.6-0.6-4.9-2c-1.3-1.6-1.9-3.6-1.8-5.6c0-2.2,0.5-4.4,1.5-6.5c1.1-2.2,2.5-4.1,4.4-5.6c2-1.7,4.2-3,6.7-3.8
		c0.1,0,0.2,0,0.2,0.1s0,0.2,0,0.2c-3.9,1.9-7,5.2-8.5,9.2c-0.7,1.8-1.1,3.8-1.1,5.7c0,1.3,0.2,2.5,0.5,3.8c0.3,1,0.8,1.9,1.6,2.7
		c0.6,0.6,1.5,1,2.4,1c0.9,0,1.8-0.4,2.3-1.1c0.6-0.9,0.9-2,0.9-3.1c0.1-1.1-0.2-2.1-0.8-3c-0.5-0.8-1.4-1.2-2.3-1.1
		c-0.5,0-0.9,0.1-1.4,0.3c-0.5,0.2-1,0.5-1.5,0.9c0,0-0.1,0-0.1,0c-0.1,0-0.2,0-0.2-0.1c-0.1-0.1-0.1-0.1-0.1-0.2
		c1.2-1.4,3-2.3,4.9-2.2C102.2,13.1,103.4,13.5,104.3,14.4z"/>
	<path class="st0" d="M129.4,13.5c0.9,1.1,1.3,2.5,1.3,3.9c0,1.2-0.3,2.3-1,3.2c-0.7,1-1.6,1.7-2.7,2.2c-1.2,0.5-2.5,0.8-3.8,0.8
		c-1.3,0-2.6-0.2-3.9-0.8c-1-0.5-1.9-1.3-2.5-2.2c-0.6-0.9-0.9-2-0.9-3.1c0-1.4,0.4-2.8,1.3-3.9c0.9-1.1,2-2.1,3.3-2.7
		c-0.8-0.6-1.5-1.3-2-2.1c-0.5-0.8-0.7-1.8-0.7-2.8c0-1,0.2-2,0.8-2.8c0.5-0.8,1.3-1.3,2.1-1.7c0.9-0.4,1.8-0.6,2.8-0.6
		c1.4-0.1,2.7,0.4,3.8,1.2c1,0.8,1.5,2,1.5,3.2c0,1-0.3,2-0.8,2.8c-0.6,0.9-1.3,1.7-2.2,2.4C127.2,11.3,128.4,12.3,129.4,13.5z
		 M126.7,21.7c0.6-0.9,1-1.9,0.9-3c0-1-0.2-2-0.7-2.8c-0.4-0.7-1-1.4-1.7-1.9c-0.9-0.7-1.8-1.3-2.7-1.8c-0.6-0.3-1-0.6-1.2-0.8
		c-1.3,1.4-2,3.3-1.9,5.3c-0.1,1.6,0.4,3.2,1.2,4.5c0.8,1.1,2,1.7,3.3,1.7C125.1,23,126.1,22.5,126.7,21.7z M121.2,2.3
		c-0.4,0.6-0.6,1.3-0.6,2c0,1.1,0.4,2.2,1.1,3.1c1,1,2.1,1.9,3.3,2.5c0.6-1.3,0.9-2.8,0.9-4.2c0.1-1.1-0.2-2.2-0.8-3.1
		c-0.5-0.7-1.3-1-2.1-1C122.4,1.6,121.7,1.8,121.2,2.3z"/>
	<path class="st0" d="M146.7,13.5c0.9,1.1,1.3,2.5,1.3,3.9c0,1.2-0.3,2.3-1,3.2c-0.7,1-1.6,1.7-2.7,2.2c-1.2,0.5-2.5,0.8-3.8,0.8
		c-1.3,0-2.6-0.2-3.9-0.8c-1-0.5-1.9-1.3-2.5-2.2c-0.6-0.9-0.9-2-0.9-3.1c0-1.4,0.4-2.8,1.3-3.9c0.9-1.1,2-2.1,3.3-2.7
		c-0.8-0.6-1.5-1.3-2-2.1c-0.5-0.8-0.7-1.8-0.7-2.8c0-1,0.2-2,0.8-2.8c0.5-0.8,1.3-1.3,2.1-1.7c0.9-0.4,1.8-0.6,2.8-0.6
		c1.4-0.1,2.7,0.4,3.8,1.2c1,0.8,1.5,2,1.5,3.2c0,1-0.3,2-0.8,2.8c-0.6,0.9-1.3,1.7-2.2,2.4C144.5,11.3,145.7,12.3,146.7,13.5z
		 M144,21.7c0.6-0.9,1-1.9,0.9-3c0-1-0.2-2-0.7-2.8c-0.4-0.7-1-1.4-1.7-1.9c-0.9-0.7-1.8-1.3-2.7-1.8c-0.6-0.3-1-0.6-1.2-0.8
		c-1.3,1.4-2,3.3-1.9,5.3c-0.1,1.6,0.4,3.2,1.2,4.5c0.8,1.1,2,1.7,3.3,1.7C142.4,22.9,143.3,22.5,144,21.7L144,21.7z M138.5,2.4
		c-0.4,0.6-0.6,1.3-0.6,2c0,1.1,0.4,2.2,1.1,3.1c1,1,2.1,1.9,3.3,2.5c0.6-1.3,0.9-2.8,0.9-4.2c0.1-1.1-0.2-2.2-0.8-3.1
		c-0.5-0.7-1.3-1-2.1-1C139.6,1.6,139,1.8,138.5,2.4L138.5,2.4z"/>
	<path class="st0" d="M163.9,13.5c0.9,1.1,1.3,2.5,1.3,3.9c0,1.2-0.3,2.3-1,3.2c-0.7,1-1.6,1.7-2.7,2.2c-1.2,0.5-2.5,0.8-3.8,0.8
		c-1.3,0-2.6-0.2-3.9-0.8c-1-0.5-1.9-1.3-2.5-2.2c-0.6-0.9-0.9-2-0.9-3.1c0-1.4,0.4-2.8,1.3-3.9c0.9-1.1,2-2.1,3.3-2.7
		c-0.8-0.6-1.5-1.3-2-2.1c-0.5-0.8-0.7-1.8-0.7-2.8c0-1,0.2-2,0.8-2.8c0.5-0.8,1.3-1.3,2.1-1.7c0.9-0.4,1.8-0.6,2.8-0.6
		c1.4-0.1,2.7,0.4,3.8,1.2c1,0.8,1.5,2,1.5,3.2c0,1-0.3,2-0.8,2.8c-0.6,0.9-1.3,1.7-2.2,2.4C161.7,11.3,162.9,12.3,163.9,13.5z
		 M161.2,21.7c0.6-0.9,1-1.9,0.9-3c0-1-0.2-2-0.7-2.8c-0.4-0.7-1-1.4-1.7-1.9c-0.9-0.7-1.8-1.3-2.7-1.8c-0.6-0.3-1-0.6-1.2-0.8
		c-1.3,1.4-2,3.3-1.9,5.3c-0.1,1.6,0.4,3.2,1.2,4.5c0.8,1.1,2,1.7,3.3,1.7C159.6,23,160.6,22.5,161.2,21.7z M155.8,2.4
		c-0.4,0.6-0.6,1.3-0.6,2c0,1.1,0.4,2.2,1.1,3.1c1,1,2.1,1.9,3.3,2.5c0.6-1.3,0.9-2.8,0.9-4.2c0.1-1.1-0.2-2.2-0.8-3.1
		c-0.5-0.7-1.3-1-2.1-1C156.9,1.6,156.2,1.8,155.8,2.4L155.8,2.4z"/>
	<path class="st0" d="M181.2,13.5c0.9,1.1,1.3,2.5,1.3,3.9c0,1.2-0.3,2.3-1,3.2c-0.7,1-1.6,1.7-2.7,2.2c-1.2,0.5-2.5,0.8-3.8,0.8
		c-1.3,0-2.6-0.2-3.9-0.8c-1-0.5-1.9-1.3-2.5-2.2c-0.6-0.9-0.9-2-0.9-3.1c0-1.4,0.4-2.8,1.3-3.9c0.9-1.1,2-2.1,3.3-2.7
		c-0.8-0.6-1.5-1.3-2-2.1c-0.5-0.8-0.7-1.8-0.7-2.8c0-1,0.2-2,0.8-2.8c0.5-0.8,1.3-1.3,2.1-1.7c0.9-0.4,1.8-0.6,2.8-0.6
		c1.4-0.1,2.7,0.4,3.8,1.2c1,0.8,1.5,2,1.5,3.2c0,1-0.3,2-0.8,2.8c-0.6,0.9-1.3,1.7-2.2,2.4C179,11.3,180.2,12.3,181.2,13.5z
		 M178.5,21.7c0.6-0.9,1-1.9,0.9-3c0-1-0.2-2-0.7-2.8c-0.4-0.7-1-1.4-1.7-1.9c-0.9-0.7-1.8-1.3-2.7-1.8c-0.6-0.3-1-0.6-1.2-0.8
		c-1.3,1.4-2,3.3-1.9,5.3c-0.1,1.6,0.4,3.2,1.2,4.5c0.8,1.1,2,1.7,3.3,1.7C176.9,22.9,177.9,22.5,178.5,21.7L178.5,21.7z M173.1,2.4
		c-0.4,0.6-0.6,1.3-0.6,2c0,1.1,0.4,2.2,1.1,3.1c1,1,2.1,1.9,3.3,2.5c0.6-1.3,0.9-2.8,0.9-4.2c0.1-1.1-0.2-2.2-0.8-3.1
		c-0.5-0.7-1.3-1-2.1-1C174.2,1.6,173.5,1.8,173.1,2.4L173.1,2.4z"/>
</g>
</svg>
