<svg id="Layer_1" data-name="Layer 1" xmlns="http://www.w3.org/2000/svg" viewBox="0 0 24.6 24.6"><defs><style>.cls-1{fill:#7b6648;}</style></defs><title>Youtube</title><polygon class="cls-1" points="10.72 14.37 14.86 12.14 10.72 9.88 10.72 14.37"/><path class="cls-1" d="M262.44,245.2H250.16a6.18,6.18,0,0,0-6.15,6.17v12.28a6.17,6.17,0,0,0,6.15,6.15h12.28a6.18,6.18,0,0,0,6.17-6.17V251.37A6.18,6.18,0,0,0,262.44,245.2Zm1.48,12.9c0,1.29-.12,2.6-.12,2.6a3.54,3.54,0,0,1-.59,1.58,2.12,2.12,0,0,1-1.52.68c-2.15.16-5.37.18-5.37.18s-4-.06-5.23-.18a2.49,2.49,0,0,1-1.7-.68,3.3,3.3,0,0,1-.59-1.58s-.12-1.31-.12-2.6v-1.21c0-1.29.12-2.6.12-2.6a3.54,3.54,0,0,1,.59-1.58,2.17,2.17,0,0,1,1.52-.7c2.17-.16,5.39-.18,5.39-.18h0s3.22,0,5.37.18a2.25,2.25,0,0,1,1.54.68,3.35,3.35,0,0,1,.59,1.6s.12,1.31.12,2.6Z" transform="translate(-244.01 -245.2)"/></svg>