<svg id="Layer_1" data-name="Layer 1" xmlns="http://www.w3.org/2000/svg" viewBox="0 0 29.88 29.88"><defs><style>.cls-1{fill:#b55366;}</style></defs><title>Youtube 1</title><polygon class="cls-1" points="13.02 17.45 18.05 14.75 13.02 12 13.02 17.45"/><path class="cls-1" d="M236,214.42H221.09a7.5,7.5,0,0,0-7.47,7.49v14.92a7.5,7.5,0,0,0,7.47,7.47H236a7.51,7.51,0,0,0,7.49-7.49V221.91A7.51,7.51,0,0,0,236,214.42Zm1.8,15.67c0,1.57-.14,3.15-.14,3.15a4.3,4.3,0,0,1-.71,1.92,2.58,2.58,0,0,1-1.85.83c-2.61.19-6.52.21-6.52.21s-4.86-.07-6.36-.21a3,3,0,0,1-2.06-.83,4,4,0,0,1-.71-1.92s-.14-1.59-.14-3.15v-1.47c0-1.57.14-3.15.14-3.15a4.3,4.3,0,0,1,.71-1.92,2.63,2.63,0,0,1,1.85-.85c2.63-.19,6.54-.21,6.54-.21h0s3.91,0,6.52.21a2.73,2.73,0,0,1,1.87.83,4.07,4.07,0,0,1,.71,1.94s.14,1.59.14,3.15Z" transform="translate(-213.62 -214.42)"/></svg>